<svg width="31" height="28" viewBox="0 0 31 28" fill="none" xmlns="http://www.w3.org/2000/svg">
<g clip-path="url(#clip0_279_351)">
<path d="M15.5008 6.76025C15.3412 6.76025 15.1881 6.82369 15.0752 6.9366C14.9623 7.04951 14.8989 7.20265 14.8989 7.36233V14.8519C14.8989 15.0116 14.9623 15.1648 15.0752 15.2777C15.1881 15.3906 15.3412 15.454 15.5008 15.454C15.6605 15.454 15.8136 15.3906 15.9264 15.2777C16.0393 15.1648 16.1027 15.0116 16.1027 14.8519V7.36233C16.1027 7.20265 16.0393 7.04951 15.9264 6.9366C15.8136 6.82369 15.6605 6.76025 15.5008 6.76025Z" fill="#717171"/>
<path d="M19.1817 6.76025C19.0221 6.76025 18.869 6.82369 18.7561 6.9366C18.6432 7.04951 18.5798 7.20265 18.5798 7.36233V14.8519C18.5798 15.0116 18.6432 15.1648 18.7561 15.2777C18.869 15.3906 19.0221 15.454 19.1817 15.454C19.3414 15.454 19.4945 15.3906 19.6074 15.2777C19.7202 15.1648 19.7837 15.0116 19.7837 14.8519V7.36233C19.7837 7.20265 19.7202 7.04951 19.6074 6.9366C19.4945 6.82369 19.3414 6.76025 19.1817 6.76025Z" fill="#717171"/>
<path d="M22.8511 6.76025C22.6914 6.76025 22.5383 6.82369 22.4254 6.9366C22.3126 7.04951 22.2491 7.20265 22.2491 7.36233V14.7825C22.2491 14.9421 22.3126 15.0953 22.4254 15.2082C22.5383 15.3211 22.6914 15.3845 22.8511 15.3845C23.0107 15.3845 23.1638 15.3211 23.2767 15.2082C23.3895 15.0953 23.453 14.9421 23.453 14.7825V7.36233C23.453 7.20265 23.3895 7.04951 23.2767 6.9366C23.1638 6.82369 23.0107 6.76025 22.8511 6.76025Z" fill="#717171"/>
<path d="M11.8116 6.76025C11.652 6.76025 11.4989 6.82369 11.386 6.9366C11.2731 7.04951 11.2097 7.20265 11.2097 7.36233V14.8519C11.2097 15.0116 11.2731 15.1648 11.386 15.2777C11.4989 15.3906 11.652 15.454 11.8116 15.454C11.9713 15.454 12.1244 15.3906 12.2372 15.2777C12.3501 15.1648 12.4135 15.0116 12.4135 14.8519V7.36233C12.4135 7.20265 12.3501 7.04951 12.2372 6.9366C12.1244 6.82369 11.9713 6.76025 11.8116 6.76025Z" fill="#717171"/>
<path d="M8.13566 6.76025C7.97603 6.76025 7.82293 6.82369 7.71005 6.9366C7.59717 7.04951 7.53375 7.20265 7.53375 7.36233V14.7825C7.53375 14.9421 7.59717 15.0953 7.71005 15.2082C7.82293 15.3211 7.97603 15.3845 8.13566 15.3845C8.2953 15.3845 8.4484 15.3211 8.56128 15.2082C8.67416 15.0953 8.73757 14.9421 8.73757 14.7825V7.36233C8.73757 7.20265 8.67416 7.04951 8.56128 6.9366C8.4484 6.82369 8.2953 6.76025 8.13566 6.76025Z" fill="#717171"/>
<path d="M28.6305 13.1812H28.6206L26.9356 6.46574C26.7376 5.66962 26.2787 4.96277 25.6322 4.45792C24.9858 3.95307 24.1889 3.6793 23.3688 3.68029H20.4915V2.20156C20.4911 1.6178 20.259 1.05808 19.8464 0.645306C19.4337 0.232528 18.8742 0.000438091 18.2906 0L12.7328 0C12.1499 0.00174894 11.5915 0.234365 11.1796 0.646954C10.7678 1.05954 10.5361 1.61851 10.5352 2.20156V3.67698H7.61824C6.79809 3.676 6.00123 3.94976 5.35476 4.45461C4.70829 4.95946 4.24945 5.66631 4.05143 6.46243L2.37964 13.1779H2.36972C1.61665 13.4228 0.971494 13.9209 0.543784 14.5875C0.116074 15.2541 -0.0678379 16.0482 0.0232678 16.8351C0.115393 17.6282 0.471206 18.3674 1.03362 18.9341C1.46596 19.3714 2.01751 19.6717 2.61942 19.7975L4.06301 25.7521C4.21862 26.3937 4.58562 26.9641 5.10488 27.3716C5.62413 27.7791 6.26541 27.9999 6.92539 27.9983H24.0616C24.7216 27.9999 25.3629 27.7791 25.8821 27.3716C26.4014 26.9641 26.7684 26.3937 26.924 25.7521L28.3676 19.7975C28.9695 19.6714 29.5213 19.3718 29.955 18.9357C30.523 18.371 30.8832 17.6306 30.977 16.8351C31.0679 16.0487 30.8839 15.255 30.4561 14.589C30.0284 13.9229 29.3833 13.4255 28.6305 13.1812ZM11.9986 2.20156C11.9975 2.10458 12.0157 2.00835 12.0522 1.91847C12.0886 1.8286 12.1426 1.74687 12.2109 1.67806C12.2792 1.60925 12.3606 1.55473 12.4502 1.51767C12.5398 1.4806 12.6359 1.46175 12.7328 1.46219H18.2856C18.383 1.46108 18.4796 1.47945 18.5698 1.51622C18.66 1.55298 18.7419 1.6074 18.8107 1.67628C18.8796 1.74516 18.934 1.82711 18.9708 1.91731C19.0075 2.00751 19.0259 2.10416 19.0248 2.20156V3.67698H11.9986V2.20156ZM24.0616 26.5378H6.92539C6.5933 26.5372 6.27096 26.4255 6.00967 26.2205C5.74838 26.0154 5.56315 25.7289 5.48345 25.4064L4.13411 19.857H6.4938C6.50748 20.2368 6.66776 20.5964 6.94096 20.8604C7.21415 21.1245 7.57901 21.2723 7.95888 21.2729H11.1586C11.5383 21.2723 11.903 21.1244 12.1759 20.8603C12.4488 20.5963 12.6088 20.2366 12.622 19.857H18.365C18.3782 20.2366 18.5382 20.5963 18.8111 20.8603C19.084 21.1244 19.4487 21.2723 19.8284 21.2729H23.0281C23.408 21.2723 23.7728 21.1245 24.046 20.8604C24.3192 20.5964 24.4795 20.2368 24.4932 19.857H26.8496L25.5036 25.4064C25.4239 25.7289 25.2386 26.0154 24.9773 26.2205C24.716 26.4255 24.3937 26.5372 24.0616 26.5378ZM11.1636 18.4544V19.8107H7.95558V18.456H11.1586L11.1636 18.4544ZM23.0331 18.4544V19.8107H19.8251V18.456H23.0281L23.0331 18.4544ZM29.5301 16.6647C29.4176 17.6356 28.6504 18.3948 27.7839 18.3948H24.4916C24.475 18.0176 24.3136 17.6613 24.041 17.4C23.7684 17.1388 23.4056 16.9927 23.0281 16.9922H19.8284C19.4509 16.9927 19.0881 17.1388 18.8155 17.4C18.543 17.6613 18.3816 18.0176 18.365 18.3948H12.622C12.6054 18.0176 12.4441 17.6613 12.1715 17.4C11.8989 17.1388 11.5361 16.9927 11.1586 16.9922H7.95888C7.58137 16.9927 7.21858 17.1388 6.946 17.4C6.67343 17.6613 6.51205 18.0176 6.49545 18.3948H3.2081C2.25066 18.3948 1.57434 17.5149 1.47513 16.6647C1.42332 16.2145 1.52892 15.7603 1.77399 15.3791C2.01906 14.998 2.38849 14.7135 2.8195 14.574C3.05785 14.5011 3.2735 14.3682 3.44578 14.1881C3.61807 14.0079 3.7412 13.7865 3.80339 13.5451L5.46857 6.81805C5.58816 6.33837 5.86476 5.9125 6.25432 5.60825C6.64388 5.30401 7.12401 5.13889 7.61824 5.13918H23.3688C23.863 5.13889 24.3431 5.30401 24.7327 5.60825C25.1222 5.9125 25.3988 6.33837 25.5184 6.81805L27.2051 13.5435C27.2668 13.7841 27.389 14.0049 27.5601 14.1849C27.7311 14.365 27.9453 14.4983 28.1824 14.5723C28.6136 14.7119 28.983 14.9968 29.2279 15.3783C29.4727 15.7598 29.5777 16.2144 29.5251 16.6647H29.5301Z" fill="#717171"/>
</g>
<defs>
<clipPath id="clip0_279_351">
<rect width="31" height="28" fill="white"/>
</clipPath>
</defs>
</svg>
