<svg width="23" height="27" viewBox="0 0 23 27" fill="none" xmlns="http://www.w3.org/2000/svg">
<g clip-path="url(#clip0_279_333)">
<path d="M7.22628 5.6231H10.6367C10.7767 5.6231 10.911 5.5678 11.01 5.46935C11.109 5.37091 11.1647 5.23739 11.1647 5.09817C11.1647 4.95895 11.109 4.82543 11.01 4.72699C10.911 4.62855 10.7767 4.57324 10.6367 4.57324H7.22628C7.08625 4.57324 6.95196 4.62855 6.85295 4.72699C6.75393 4.82543 6.6983 4.95895 6.6983 5.09817C6.6983 5.23739 6.75393 5.37091 6.85295 5.46935C6.95196 5.5678 7.08625 5.6231 7.22628 5.6231Z" fill="#717171"/>
<path d="M12.347 5.6231H15.7738C15.9138 5.6231 16.0481 5.5678 16.1471 5.46935C16.2461 5.37091 16.3018 5.23739 16.3018 5.09817C16.3018 4.95895 16.2461 4.82543 16.1471 4.72699C16.0481 4.62855 15.9138 4.57324 15.7738 4.57324H12.347C12.2069 4.57324 12.0726 4.62855 11.9736 4.72699C11.8746 4.82543 11.819 4.95895 11.819 5.09817C11.819 5.23739 11.8746 5.37091 11.9736 5.46935C12.0726 5.5678 12.2069 5.6231 12.347 5.6231Z" fill="#717171"/>
<path d="M22.3145 24.7266L21.2547 22.5176C21.1674 22.3292 21.1221 22.1242 21.1221 21.9167C21.1221 21.7092 21.1674 21.5042 21.2547 21.3158C22.4017 18.8637 22.9959 16.192 22.9959 13.4877C22.9959 10.7834 22.4017 8.11172 21.2547 5.65959C21.1678 5.47572 21.1227 5.27504 21.1227 5.07186C21.1227 4.86869 21.1678 4.66801 21.2547 4.48414L22.3145 2.27517C22.4319 2.03094 22.4858 1.76132 22.4712 1.49102C22.4567 1.22071 22.3741 0.958357 22.2311 0.728004C22.0849 0.50179 21.8832 0.316259 21.645 0.188846C21.4068 0.0614332 21.1399 -0.00367789 20.8695 -0.000368115H2.13247C1.86395 -0.00260428 1.59926 0.0630692 1.36329 0.190481C1.12731 0.317894 0.927785 0.502861 0.783465 0.728004C0.638918 0.956728 0.554288 1.2178 0.537299 1.4874C0.52031 1.75699 0.571503 2.02653 0.686205 2.2714L1.73332 4.48289C1.82146 4.6662 1.86783 4.86659 1.86914 5.06977C1.87045 5.27294 1.82666 5.47391 1.7409 5.65833C0.594542 8.11063 0.000610352 10.7822 0.000610352 13.4864C0.000610352 16.1907 0.594542 18.8623 1.7409 21.3146C1.82708 21.5035 1.87103 21.7088 1.86972 21.9163C1.86841 22.1238 1.82188 22.3285 1.73332 22.5164L0.686205 24.7279C0.571875 24.9684 0.520824 25.2339 0.537835 25.4995C0.554845 25.765 0.63936 26.0219 0.783465 26.2461C0.925557 26.4752 1.12394 26.6646 1.35993 26.7964C1.59593 26.9282 1.86178 26.9981 2.13247 26.9996H20.8695C21.1417 26.9972 21.409 26.927 21.6468 26.7954C21.8847 26.6637 22.0856 26.4749 22.2311 26.2461C22.3734 26.0209 22.4559 25.7635 22.4709 25.498C22.486 25.2325 22.433 24.9675 22.317 24.7279L22.3145 24.7266ZM2.90549 6.19456C2.9903 6.01176 3.05427 5.82011 3.09622 5.62317H5.52013C5.66016 5.62317 5.79446 5.56786 5.89347 5.46942C5.99249 5.37097 6.04811 5.23746 6.04811 5.09824C6.04811 4.95902 5.99249 4.8255 5.89347 4.72706C5.79446 4.62861 5.66016 4.57331 5.52013 4.57331H3.10127C3.05828 4.3542 2.98828 4.1412 2.89286 3.93912L1.84574 1.72763C1.82248 1.67713 1.81215 1.62168 1.81567 1.56625C1.8192 1.51081 1.83647 1.4571 1.86595 1.40991C1.89503 1.36656 1.9348 1.33134 1.98145 1.3076C2.0281 1.28386 2.08009 1.27239 2.13247 1.27428H20.8695C20.9235 1.27175 20.9774 1.28286 21.026 1.30657C21.0745 1.33028 21.1163 1.36583 21.1474 1.40991C21.1747 1.45816 21.1898 1.51231 21.1914 1.56768C21.1929 1.62305 21.1808 1.67796 21.1562 1.72763L20.0964 3.93661C20.0015 4.13863 19.9323 4.35168 19.8906 4.5708H17.4805C17.3405 4.5708 17.2062 4.6261 17.1072 4.72454C17.0082 4.82299 16.9526 4.95651 16.9526 5.09573C16.9526 5.23495 17.0082 5.36846 17.1072 5.46691C17.2062 5.56535 17.3405 5.62066 17.4805 5.62066H19.9044C19.9468 5.81764 20.0112 6.00929 20.0964 6.19205C21.1648 8.47623 21.7183 10.9649 21.7183 13.4839C21.7183 16.003 21.1648 18.4916 20.0964 20.7758C20.0098 20.9629 19.945 21.1593 19.9032 21.361H17.4805C17.3405 21.361 17.2062 21.4163 17.1072 21.5148C17.0082 21.6132 16.9526 21.7467 16.9526 21.886C16.9526 22.0252 17.0082 22.1587 17.1072 22.2571C17.2062 22.3556 17.3405 22.4109 17.4805 22.4109H19.8893C19.9293 22.6345 19.9985 22.8519 20.0952 23.0576L21.1549 25.2666C21.1789 25.3118 21.1908 25.3624 21.1892 25.4134C21.1877 25.4645 21.1728 25.5143 21.1461 25.558C21.1164 25.6053 21.0756 25.6447 21.0272 25.6729C20.9788 25.7011 20.9242 25.7173 20.8682 25.72H2.13247C2.07801 25.7171 2.02513 25.7008 1.9786 25.6725C1.93207 25.6442 1.89335 25.6048 1.86595 25.558C1.83709 25.5155 1.82003 25.4661 1.81648 25.415C1.81293 25.3638 1.82302 25.3126 1.84574 25.2666L2.89286 23.0551C2.98946 22.8491 3.05949 22.6318 3.10127 22.4084H5.52013C5.66016 22.4084 5.79446 22.3531 5.89347 22.2546C5.99249 22.1562 6.04811 22.0227 6.04811 21.8834C6.04811 21.7442 5.99249 21.6107 5.89347 21.5123C5.79446 21.4138 5.66016 21.3585 5.52013 21.3585H3.09496C3.05481 21.1584 2.99122 20.9637 2.90549 20.7783C1.83717 18.4942 1.28365 16.0055 1.28365 13.4864C1.28365 10.9674 1.83717 8.47874 2.90549 6.19456Z" fill="#717171"/>
<path d="M10.6405 21.3638H7.23007C7.09004 21.3638 6.95574 21.4191 6.85673 21.5175C6.75771 21.616 6.70209 21.7495 6.70209 21.8887C6.70209 22.0279 6.75771 22.1614 6.85673 22.2599C6.95574 22.3583 7.09004 22.4136 7.23007 22.4136H10.6405C10.7805 22.4136 10.9148 22.3583 11.0138 22.2599C11.1128 22.1614 11.1684 22.0279 11.1684 21.8887C11.1684 21.7495 11.1128 21.616 11.0138 21.5175C10.9148 21.4191 10.7805 21.3638 10.6405 21.3638Z" fill="#717171"/>
<path d="M15.7738 21.3638H12.347C12.2069 21.3638 12.0726 21.4191 11.9736 21.5175C11.8746 21.616 11.819 21.7495 11.819 21.8887C11.819 22.0279 11.8746 22.1614 11.9736 22.2599C12.0726 22.3583 12.2069 22.4136 12.347 22.4136H15.7738C15.9138 22.4136 16.0481 22.3583 16.1471 22.2599C16.2461 22.1614 16.3018 22.0279 16.3018 21.8887C16.3018 21.7495 16.2461 21.616 16.1471 21.5175C16.0481 21.4191 15.9138 21.3638 15.7738 21.3638Z" fill="#717171"/>
<path d="M7.26922 18.9261C7.49548 19.3336 7.85068 19.6554 8.27971 19.8416C8.52977 19.9502 8.80236 19.9976 9.07465 19.9799C9.34694 19.9622 9.611 19.8799 9.84471 19.7399C9.90407 19.7072 9.97102 19.6758 10.0354 19.6419L10.0961 19.6105C10.5234 19.4054 10.992 19.2998 11.4665 19.3016C11.5461 19.3016 11.6194 19.3016 11.6876 19.3104C11.932 19.3194 12.1744 19.3591 12.4088 19.4285C12.6428 19.5115 12.868 19.6175 13.0808 19.7449C13.3158 19.8841 13.5809 19.9656 13.8539 19.9826C14.127 19.9996 14.4001 19.9517 14.6508 19.8429C15.0786 19.6584 15.4336 19.3394 15.6613 18.9349V18.9286C16.078 18.1981 16.2946 17.3717 16.2897 16.5319C16.2847 15.6922 16.0584 14.8684 15.6332 14.1427C15.208 13.4171 14.5988 12.815 13.8665 12.3965C13.1342 11.978 12.3043 11.7578 11.4596 11.7578C10.6149 11.7578 9.78502 11.978 9.05269 12.3965C8.32036 12.815 7.71121 13.4171 7.28603 14.1427C6.86084 14.8684 6.63448 15.6922 6.62954 16.5319C6.62459 17.3717 6.84124 18.1981 7.25785 18.9286L7.26922 18.9261ZM9.05274 13.6731C9.73171 13.1091 10.5884 12.8003 11.4731 12.8004C12.3578 12.8006 13.2143 13.1098 13.8931 13.6739C14.5719 14.2381 15.0297 15.0214 15.1867 15.8871C15.3437 16.7527 15.1898 17.6457 14.7519 18.41C14.6385 18.6143 14.4611 18.7761 14.2467 18.8709C14.1479 18.9141 14.0401 18.9329 13.9325 18.9254C13.8249 18.918 13.7207 18.8846 13.629 18.8282L13.6176 18.8219L13.6063 18.8156C13.3318 18.6524 13.041 18.5182 12.7385 18.415C12.4205 18.319 12.0916 18.2633 11.7596 18.2492C11.675 18.2492 11.5865 18.2417 11.488 18.2392H11.4665C10.8289 18.2385 10.1996 18.3837 9.62745 18.6637L9.56935 18.6925C9.49609 18.7302 9.4203 18.7679 9.34199 18.8181H9.33062L9.31925 18.8244C9.22848 18.8807 9.12536 18.9143 9.01869 18.9224C8.91201 18.9305 8.80495 18.9128 8.70664 18.8709C8.49216 18.7774 8.3146 18.6163 8.2014 18.4125C7.76127 17.6488 7.60538 16.7555 7.76103 15.889C7.91667 15.0225 8.37393 14.2381 9.05274 13.6731Z" fill="#717171"/>
<path d="M9.24726 11.5696C9.41873 11.57 9.58921 11.5438 9.75251 11.4917C9.98029 11.415 10.1896 11.2921 10.3672 11.1308C10.5448 10.9696 10.6869 10.7735 10.7845 10.5549C10.9631 10.1536 11.0168 9.70837 10.9386 9.27649C10.8627 8.76972 10.6218 8.30167 10.2527 7.94407C10.0051 7.70912 9.70048 7.54209 9.36852 7.45933C9.21641 7.42269 9.06017 7.4058 8.90369 7.40909C8.75985 7.41311 8.61716 7.43591 8.47929 7.47691C8.46857 7.48012 8.45803 7.48389 8.44771 7.48821H8.42624C8.33266 7.51917 8.24217 7.55869 8.15593 7.60626C7.83681 7.79675 7.58249 8.07803 7.42585 8.41375C7.34591 8.5821 7.28899 8.76033 7.2566 8.9437C7.15825 9.56052 7.30551 10.1912 7.66711 10.7018C7.88652 11.0159 8.18782 11.2647 8.53865 11.4214C8.76212 11.5186 9.00333 11.5691 9.24726 11.5696ZM8.29614 9.11951C8.31191 9.0295 8.33995 8.94204 8.3795 8.85956C8.44475 8.71722 8.55117 8.59743 8.68518 8.51547C8.71568 8.50173 8.74688 8.48958 8.77865 8.47905C8.82216 8.46559 8.86708 8.45717 8.91254 8.45393C8.97904 8.45367 9.04529 8.46212 9.10958 8.47905C9.26402 8.5186 9.40547 8.59736 9.52009 8.70761C9.72058 8.90643 9.85049 9.16476 9.89018 9.44351C9.93202 9.6702 9.90657 9.90409 9.81692 10.1166C9.77973 10.2029 9.72528 10.2808 9.65688 10.3456C9.58849 10.4104 9.50757 10.4606 9.41904 10.4934C9.26448 10.5377 9.09902 10.5252 8.95296 10.4582C8.7787 10.3787 8.62973 10.2531 8.52223 10.0953C8.3225 9.81146 8.24144 9.46161 8.29614 9.11951Z" fill="#717171"/>
<path d="M3.68448 13.1207C3.98133 13.579 4.42709 13.9225 4.94759 14.0939C5.17075 14.1684 5.40441 14.2069 5.63978 14.2082C5.79772 14.2085 5.95509 14.1895 6.10839 14.1517C6.51298 14.0613 6.8692 13.8243 7.10762 13.487C7.34604 13.1496 7.44957 12.7361 7.39803 12.327C7.35627 11.9637 7.22001 11.6174 7.00268 11.3224C6.75777 10.9875 6.4302 10.7211 6.05155 10.5488C5.61848 10.3455 5.12985 10.2907 4.66213 10.3931C4.26671 10.4821 3.91636 10.7088 3.67438 11.0323C3.51766 11.258 3.4153 11.5165 3.37522 11.7878C3.33513 12.0592 3.3584 12.336 3.44323 12.597C3.49948 12.7816 3.58064 12.9578 3.68448 13.1207ZM4.51435 11.6589C4.60649 11.5329 4.74088 11.4439 4.89328 11.4077C4.96405 11.3911 5.03654 11.3826 5.10927 11.3826C5.28046 11.3843 5.4493 11.4224 5.60441 11.4944C5.81817 11.5924 6.0027 11.7438 6.13997 11.9339C6.25087 12.0808 6.32101 12.254 6.34333 12.4363C6.36844 12.5938 6.33076 12.7549 6.23831 12.8853C6.14585 13.0157 6.0059 13.1051 5.84819 13.1345C5.65706 13.1761 5.45803 13.164 5.27348 13.0993C4.98578 13.002 4.73934 12.8114 4.57371 12.5581C4.51865 12.4769 4.47608 12.388 4.4474 12.2944C4.41044 12.1901 4.39727 12.079 4.40885 11.9691C4.42043 11.8592 4.45646 11.7533 4.51435 11.6589Z" fill="#717171"/>
<path d="M15.6929 9.05544C15.6567 8.75002 15.5532 8.4563 15.3898 8.19521C15.2692 7.9993 15.1113 7.82867 14.925 7.69288C14.7904 7.60106 14.6432 7.52914 14.4879 7.4794H14.474C14.087 7.36093 13.6701 7.38318 13.2981 7.54219C12.9719 7.68268 12.6871 7.90354 12.4707 8.18391C12.1435 8.60413 11.9657 9.12048 11.9655 9.65195C11.9608 10.0472 12.0689 10.4356 12.2775 10.7721C12.5047 11.1391 12.8622 11.4079 13.2791 11.5256C13.4139 11.5608 13.5528 11.5786 13.6922 11.5784C13.9273 11.5737 14.1592 11.5225 14.3742 11.4277C14.6943 11.2893 14.9744 11.0734 15.1889 10.7998C15.5526 10.3426 15.7362 9.76936 15.7056 9.1873C15.703 9.14712 15.698 9.10065 15.6929 9.05544ZM14.3629 10.1493C14.2583 10.2854 14.1211 10.3934 13.9637 10.4632C13.8315 10.5212 13.684 10.5353 13.5431 10.5034C13.3854 10.4546 13.2508 10.3507 13.1642 10.2108C13.0642 10.0416 13.013 9.8482 13.0164 9.65195C13.0194 9.35426 13.1196 9.06559 13.3019 8.8294C13.4077 8.69005 13.5471 8.57948 13.7073 8.50791C13.7944 8.47107 13.888 8.45186 13.9827 8.4514C14.0366 8.45106 14.0902 8.45868 14.1418 8.474C14.2008 8.49252 14.2572 8.51825 14.3098 8.5506C14.3854 8.60608 14.449 8.67613 14.4968 8.75656C14.5774 8.8857 14.6279 9.03118 14.6445 9.18228C14.6445 9.20488 14.6445 9.22749 14.6445 9.25135C14.6641 9.57481 14.5639 9.89422 14.3629 10.1493Z" fill="#717171"/>
<path d="M15.751 11.6297C15.5225 12.0476 15.465 12.5371 15.5906 12.996C15.6709 13.2487 15.8096 13.4792 15.9956 13.6689C16.1816 13.8586 16.4097 14.0024 16.6617 14.0886C16.8703 14.1616 17.0899 14.1986 17.311 14.1979C17.5825 14.1969 17.8515 14.1458 18.1042 14.0472C18.5992 13.8481 19.014 13.4917 19.284 13.0337C19.6048 12.5038 19.7349 11.6523 19.2663 11.0244C19.2272 10.9725 19.185 10.9231 19.14 10.8762C19.1147 10.8499 19.0894 10.8247 19.0629 10.7996C18.8577 10.6213 18.6155 10.4901 18.3536 10.4152C18.0916 10.3403 17.8163 10.3236 17.5472 10.3664C17.1682 10.4193 16.8074 10.5616 16.4949 10.7814C16.1825 11.0011 15.9274 11.292 15.751 11.6297ZM16.692 12.1082C16.7903 11.9224 16.9313 11.7623 17.1037 11.6409C17.276 11.5196 17.4747 11.4405 17.6836 11.41C17.7313 11.4039 17.7794 11.401 17.8276 11.4012C18.0149 11.3932 18.1985 11.4545 18.3429 11.5732L18.3682 11.5971C18.3808 11.6121 18.3973 11.631 18.4175 11.6586C18.5766 11.8683 18.5185 12.2551 18.3745 12.4925C18.2252 12.7521 17.9932 12.9549 17.7152 13.0689C17.4916 13.1612 17.2426 13.1723 17.0116 13.1003C16.9165 13.0684 16.8299 13.0154 16.7583 12.9453C16.6868 12.8753 16.6321 12.79 16.5986 12.6959C16.5539 12.4953 16.5873 12.2853 16.692 12.1082Z" fill="#717171"/>
</g>
<defs>
<clipPath id="clip0_279_333">
<rect width="23" height="27" fill="white"/>
</clipPath>
</defs>
</svg>
