<svg width="20" height="33" viewBox="0 0 20 33" fill="none" xmlns="http://www.w3.org/2000/svg">
<g clip-path="url(#clip0_279_320)">
<path d="M20.2585 3.81606C20.2576 3.18738 19.9981 2.58472 19.5367 2.14046C19.0754 1.6962 18.45 1.44666 17.798 1.44666H12.532C12.4978 1.05058 12.3097 0.681539 12.0055 0.413335C11.7013 0.145131 11.3033 -0.00247334 10.8911 3.56628e-05H6.31828C5.88529 -0.00277098 5.46884 0.160185 5.16033 0.453134C4.85182 0.746084 4.67646 1.14509 4.67275 1.56257V3.93348C4.67605 4.35122 4.85123 4.75062 5.15978 5.04389C5.46833 5.33716 5.88503 5.50033 6.31828 5.49752V7.65166C5.62799 7.79143 5.00285 8.14213 4.53569 8.65169C4.06853 9.16124 3.78426 9.80248 3.72509 10.4802H2.45737C1.80589 10.481 1.18133 10.7309 0.72066 11.175C0.259992 11.6192 0.00082623 12.2214 0 12.8496L0 30.6321C0.000826965 31.2601 0.260043 31.8622 0.720755 32.3061C1.18147 32.75 1.80603 32.9996 2.45737 33H14.752C15.4034 32.9996 16.0279 32.75 16.4886 32.3061C16.9494 31.8622 17.2086 31.2601 17.2094 30.6321V12.8496C17.2086 12.2214 16.9494 11.6192 16.4887 11.175C16.0281 10.7309 15.4035 10.481 14.752 10.4802H13.4843C13.4251 9.80227 13.1406 9.16088 12.6731 8.6513C12.2056 8.14172 11.5801 7.79115 10.8896 7.65166V5.49752H16.1806V6.23363C16.1808 6.3987 16.2147 6.56211 16.2804 6.71453C16.3461 6.86696 16.4423 7.00541 16.5635 7.12199C16.6847 7.23857 16.8285 7.33099 16.9867 7.39398C17.145 7.45696 17.3145 7.48928 17.4857 7.48908H18.9627C19.3076 7.48828 19.6381 7.35571 19.8819 7.1204C20.1256 6.88508 20.2627 6.56621 20.2632 6.23363V3.81606H20.2585ZM18.6395 5.92353H17.798V4.71625C17.798 4.61372 17.777 4.5122 17.7363 4.4175C17.6955 4.3228 17.6358 4.23677 17.5606 4.16434C17.4853 4.09191 17.396 4.03451 17.2977 3.99541C17.1994 3.95631 17.094 3.93629 16.9877 3.93649H6.31828C6.30858 3.93676 6.29912 3.93354 6.29174 3.92746V1.5686C6.2994 1.56317 6.3088 1.5605 6.31828 1.56107H10.8911C10.9006 1.5605 10.91 1.56317 10.9177 1.5686V1.67397C10.5617 1.84558 10.3619 2.08041 10.0886 2.46126C10.0282 2.54547 9.98548 2.64035 9.96302 2.74047C9.94057 2.84059 9.93879 2.94399 9.95778 3.04477C9.97677 3.14556 10.0162 3.24175 10.0737 3.32785C10.1313 3.41396 10.2058 3.48829 10.2932 3.54661C10.4696 3.66438 10.6872 3.70977 10.8983 3.67279C11.1094 3.63581 11.2967 3.51948 11.4188 3.34941C11.4837 3.2519 11.5563 3.15931 11.6358 3.07243C11.6969 3.04298 11.7621 3.0222 11.8294 3.01071H17.798C18.0195 3.01344 18.2311 3.09948 18.3877 3.25049C18.5443 3.4015 18.6335 3.60553 18.6364 3.81907L18.6395 5.92353ZM15.5904 30.6321C15.5876 30.8455 15.4983 31.0494 15.3416 31.2001C15.185 31.3509 14.9734 31.4366 14.752 31.439H2.45737C2.23604 31.4366 2.02444 31.3509 1.86778 31.2001C1.71112 31.0494 1.62183 30.8455 1.61899 30.6321V12.8496C1.62223 12.6363 1.71164 12.4327 1.86822 12.282C2.02479 12.1313 2.23617 12.0454 2.45737 12.0427H14.752C14.9735 12.0454 15.1851 12.1315 15.3417 12.2825C15.4983 12.4335 15.5876 12.6375 15.5904 12.8511V30.6321ZM11.8544 10.4802H5.35501C5.41891 10.1085 5.61742 9.77062 5.91527 9.5267C6.21312 9.28278 6.59102 9.14859 6.9818 9.14796H10.2276C10.6184 9.14859 10.9963 9.28278 11.2941 9.5267C11.592 9.77062 11.7905 10.1085 11.8544 10.4802ZM9.27056 7.58693H7.93884V5.49752H9.27056V7.58693Z" fill="#717171"/>
<path d="M11.1768 20.8218C10.4448 20.2694 9.54202 19.9692 8.61248 19.9692C7.68294 19.9692 6.78017 20.2694 6.04817 20.8218C5.32463 21.3574 4.83052 22.1308 4.65982 22.9948C4.48912 23.8589 4.65373 24.7532 5.12236 25.5079C5.32623 25.8385 5.63651 26.0959 6.00601 26.241C6.22729 26.3276 6.46594 26.3651 6.7043 26.3508C6.94266 26.3365 7.17462 26.2706 7.38301 26.1582L7.52977 26.0889L7.57817 26.0663C7.89863 25.9255 8.24704 25.8536 8.59921 25.8556H8.76626C8.94791 25.8618 9.12817 25.8885 9.30332 25.9354C9.47796 25.9938 9.64674 26.0673 9.8076 26.1552C10.0432 26.2839 10.3096 26.3514 10.5804 26.3509C10.7894 26.3507 10.9963 26.3108 11.1893 26.2334C11.5587 26.0874 11.8688 25.8296 12.0729 25.4988C12.5424 24.7484 12.7105 23.8581 12.5454 22.9963C12.3803 22.1345 11.8934 21.3609 11.1768 20.8218ZM8.83496 24.7266H8.61482H8.5914C8.06393 24.7262 7.54278 24.8372 7.06452 25.0517L7.01925 25.0728C6.95836 25.1014 6.89591 25.13 6.83034 25.1631H6.81785H6.80536C6.7534 25.1927 6.69501 25.2101 6.63484 25.214C6.57466 25.2179 6.51437 25.2082 6.45877 25.1857C6.32836 25.135 6.21871 25.0446 6.14652 24.9283C5.82596 24.4114 5.71402 23.7988 5.83209 23.2074C5.95016 22.616 6.28995 22.0872 6.78663 21.7219C7.30785 21.33 7.94991 21.1171 8.61092 21.1171C9.27192 21.1171 9.91399 21.33 10.4352 21.7219C10.9311 22.0871 11.2702 22.6155 11.3877 23.2064C11.5052 23.7973 11.3929 24.4092 11.0722 24.9253C11 25.0423 10.8905 25.1337 10.7599 25.1857C10.7038 25.2087 10.6429 25.219 10.5819 25.2156C10.521 25.2122 10.4617 25.1953 10.4087 25.1662H10.3962L10.3837 25.1586C10.155 25.0351 9.91381 24.9342 9.66397 24.8576C9.39664 24.7824 9.12094 24.7385 8.84276 24.7266H8.83496Z" fill="#717171"/>
<path d="M6.24492 19.6011C6.44294 19.6801 6.65509 19.721 6.86941 19.7215C7.02015 19.7217 7.17009 19.7004 7.31436 19.6583C7.51737 19.5967 7.70519 19.4958 7.86628 19.3617C8.02737 19.2276 8.15832 19.0632 8.2511 18.8785C8.41063 18.55 8.46028 18.1817 8.39317 17.8248C8.3226 17.4068 8.10812 17.024 7.78429 16.7379C7.56271 16.5455 7.29414 16.4103 7.00368 16.345C6.87075 16.3144 6.73441 16.2998 6.59776 16.3014C6.47033 16.3038 6.3438 16.3225 6.2215 16.3571L6.18716 16.3661H6.17154C6.08785 16.3906 6.00681 16.4229 5.92955 16.4625C5.64642 16.6152 5.41743 16.8465 5.27228 17.1263C5.19963 17.2663 5.14711 17.4152 5.11615 17.5689C5.06997 17.8204 5.077 18.0784 5.13683 18.3272C5.19666 18.5761 5.30805 18.8107 5.46431 19.017C5.66473 19.2764 5.93457 19.4783 6.24492 19.6011ZM6.28395 17.7781C6.29292 17.7311 6.30869 17.6855 6.33079 17.6426C6.36508 17.5728 6.41922 17.5138 6.48691 17.4725L6.53999 17.4545C6.56084 17.4483 6.58229 17.4443 6.604 17.4424C6.64455 17.4428 6.68491 17.4479 6.72422 17.4575C6.8181 17.4796 6.90493 17.5235 6.97714 17.5854C7.10096 17.6987 7.18177 17.8487 7.20664 18.0115C7.2335 18.1343 7.21986 18.2622 7.16761 18.3772C7.1474 18.4196 7.11863 18.4577 7.08298 18.4892C7.04732 18.5208 7.0055 18.5451 6.95996 18.5609C6.87148 18.582 6.77825 18.5746 6.69455 18.5398C6.58767 18.4945 6.49545 18.4222 6.42758 18.3306C6.36511 18.253 6.3195 18.1642 6.29348 18.0692C6.26746 17.9743 6.26156 17.8753 6.27615 17.7781H6.28395Z" fill="#717171"/>
<path d="M5.29883 21.0251C5.49927 20.7433 5.58742 20.4012 5.54707 20.0617C5.50865 19.7583 5.38563 19.4706 5.19111 19.2292C4.97546 18.956 4.69051 18.7408 4.36366 18.6045C3.98574 18.4428 3.56469 18.3996 3.15995 18.4811C2.81071 18.5529 2.49829 18.7397 2.2763 19.0094C2.13123 19.1984 2.03573 19.4184 1.99794 19.6506C1.96015 19.8828 1.9812 20.1205 2.05929 20.3432C2.11083 20.4983 2.18551 20.6453 2.28098 20.7797C2.54375 21.1509 2.92885 21.4257 3.37384 21.5595C3.56669 21.6188 3.76782 21.6492 3.97023 21.6498C4.10735 21.6505 4.24409 21.6358 4.37771 21.6061C4.74847 21.5284 5.07646 21.3215 5.29883 21.0251ZM4.32307 20.3657C4.26882 20.4293 4.19311 20.4725 4.10918 20.4877C3.98392 20.5127 3.85399 20.5049 3.73292 20.4651C3.54295 20.4088 3.37804 20.2927 3.26456 20.1354C3.23335 20.0918 3.20865 20.0442 3.19118 19.9939C3.17399 19.9499 3.16664 19.9029 3.1696 19.8559C3.17256 19.809 3.18576 19.7631 3.20835 19.7215C3.2609 19.6595 3.33443 19.6174 3.41599 19.6025C3.46205 19.5922 3.50922 19.5871 3.55651 19.5875C3.67007 19.5886 3.78218 19.6122 3.88592 19.6567C4.02597 19.7152 4.14841 19.8069 4.24188 19.9232C4.30813 19.9986 4.3528 20.0894 4.37147 20.1866C4.37792 20.25 4.36076 20.3135 4.32307 20.3657Z" fill="#717171"/>
<path d="M9.99186 19.6794C10.1119 19.7078 10.2351 19.722 10.3587 19.7215C10.5658 19.7212 10.7708 19.6829 10.9629 19.6086C11.2413 19.4987 11.4874 19.3245 11.6795 19.1013C12.0003 18.7326 12.1638 18.2602 12.137 17.7797C12.1357 17.7418 12.1321 17.7041 12.1261 17.6668C12.0936 17.4108 12 17.1655 11.8528 16.9502C11.6657 16.6661 11.3786 16.4566 11.0441 16.3601H11.0285C10.6872 16.2629 10.3219 16.2799 9.99186 16.4083C9.70838 16.5212 9.4584 16.7001 9.26433 16.9291C8.97416 17.2684 8.81424 17.6937 8.81157 18.1334C8.80774 18.4646 8.90609 18.7895 9.09415 19.0667C9.30641 19.3692 9.62545 19.5869 9.99186 19.6794ZM10.1808 17.6562C10.2473 17.5757 10.3337 17.5126 10.4321 17.4726C10.4816 17.4526 10.5346 17.4418 10.5882 17.441C10.6151 17.4411 10.6419 17.4447 10.6679 17.4515C10.6991 17.4602 10.7294 17.4718 10.7584 17.4861C10.7973 17.5137 10.8306 17.5479 10.8568 17.587C10.9023 17.6551 10.9311 17.7323 10.9411 17.8128C10.9419 17.8248 10.9419 17.8369 10.9411 17.8489C10.9548 18.0354 10.8945 18.2199 10.7725 18.3652C10.7066 18.4434 10.6219 18.5049 10.5258 18.5444C10.4504 18.575 10.3671 18.5829 10.2869 18.5669C10.205 18.5449 10.1344 18.4946 10.0887 18.4254C10.0301 18.3355 10.0013 18.2305 10.0059 18.1244C10.0074 17.9542 10.0679 17.7894 10.1776 17.6562H10.1808Z" fill="#717171"/>
<path d="M14.8316 18.8857C14.8098 18.8647 14.7864 18.8421 14.7614 18.821C14.5775 18.6743 14.3635 18.5667 14.1335 18.5052C13.9034 18.4437 13.6625 18.4298 13.4265 18.4643C13.1021 18.5031 12.7917 18.6151 12.5205 18.7911C12.2493 18.9671 12.0248 19.2022 11.8653 19.4773C11.7618 19.6513 11.6957 19.8436 11.671 20.0428C11.6463 20.2419 11.6636 20.4439 11.7217 20.6365C11.7973 20.852 11.9243 21.0474 12.0924 21.2072C12.2605 21.3669 12.465 21.4864 12.6896 21.5562C12.8725 21.6142 13.0638 21.6437 13.2564 21.6435C13.4899 21.6427 13.7214 21.6019 13.9402 21.5231C14.3655 21.3691 14.7261 21.0838 14.9659 20.7117C15.261 20.2601 15.3781 19.5421 14.9409 19.0092C14.9072 18.9659 14.8707 18.9247 14.8316 18.8857ZM13.9652 20.09C13.8629 20.2491 13.7102 20.3721 13.5296 20.4408C13.3845 20.4974 13.2237 20.5049 13.0737 20.4618C13.0272 20.4489 12.9842 20.4265 12.9476 20.3961C12.9109 20.3657 12.8815 20.3281 12.8614 20.2857C12.8439 20.1945 12.8616 20.1002 12.9113 20.0208C12.9803 19.9065 13.0758 19.8092 13.1904 19.7365C13.305 19.6639 13.4356 19.618 13.5717 19.6023C13.603 19.6023 13.6357 19.6023 13.667 19.6023C13.7752 19.5962 13.8822 19.6266 13.9698 19.6881L13.9792 19.6971C13.989 19.7058 13.9979 19.7154 14.0057 19.7257C14.0305 19.7863 14.0393 19.8518 14.0314 19.9164C14.0235 19.981 13.9991 20.0427 13.9605 20.096L13.9652 20.09Z" fill="#717171"/>
</g>
<defs>
<clipPath id="clip0_279_320">
<rect width="20" height="33" fill="white"/>
</clipPath>
</defs>
</svg>
