<svg width="146" height="143" viewBox="0 0 146 143" fill="none" xmlns="http://www.w3.org/2000/svg">
<path d="M6.21445 47.5309C6.12571 47.496 6.04729 47.4391 5.98658 47.3654C5.92587 47.2918 5.88486 47.2039 5.86742 47.11C5.80929 46.9442 5.80929 46.7635 5.86742 46.5976C5.94757 46.4022 6.09277 46.2405 6.27838 46.1402C6.37018 46.0928 6.47193 46.0681 6.57518 46.0681C6.67843 46.0681 6.78019 46.0928 6.87199 46.1402L10.8537 47.842L13.1368 42.5353L9.16879 40.8198C9.07467 40.7896 8.98911 40.7373 8.91922 40.6673C8.84933 40.5973 8.79713 40.5115 8.76696 40.4172C8.7274 40.3239 8.70701 40.2236 8.70701 40.1222C8.70701 40.0208 8.7274 39.9204 8.76696 39.8271C8.84318 39.638 8.99089 39.4867 9.17792 39.4062C9.26946 39.3666 9.36814 39.3461 9.46788 39.3461C9.56761 39.3461 9.66629 39.3666 9.75783 39.4062L18.767 43.281C18.8576 43.3203 18.9394 43.3774 19.0076 43.4489C19.0758 43.5204 19.1291 43.6049 19.1642 43.6973C19.235 43.8877 19.2304 44.0979 19.1515 44.285C19.0725 44.4721 18.9252 44.6219 18.7396 44.7037C18.6504 44.7433 18.554 44.7638 18.4565 44.7638C18.3589 44.7638 18.2625 44.7433 18.1734 44.7037L14.566 43.1529L12.3286 48.455L15.9405 49.9966C16.0319 50.0346 16.1145 50.0912 16.1829 50.1628C16.2513 50.2345 16.304 50.3197 16.3377 50.4129C16.4069 50.6033 16.401 50.8129 16.3212 50.999C16.2415 51.1852 16.0939 51.3339 15.9085 51.4148C15.818 51.4554 15.72 51.4764 15.6208 51.4764C15.5217 51.4764 15.4237 51.4554 15.3332 51.4148L10.8218 49.4934C9.321 48.8499 7.81871 48.2079 6.31491 47.5675L6.21445 47.5309Z" fill="white"/>
<path d="M11.7259 36.1399C11.5683 36.0323 11.4573 35.8688 11.4154 35.6824C11.3919 35.5888 11.3879 35.4914 11.4036 35.3962C11.4193 35.3009 11.4544 35.21 11.5067 35.1289C11.6171 34.9519 11.7898 34.8229 11.9907 34.7675C12.0917 34.7444 12.1964 34.743 12.298 34.7635C12.3995 34.784 12.4956 34.8259 12.5797 34.8864L17.2464 37.9286C17.9908 38.4781 18.88 38.7963 19.8035 38.8435C20.5797 38.8435 21.2479 38.4166 21.808 37.5626C22.1833 37.0557 22.4024 36.4498 22.4382 35.8197C22.4544 35.2843 22.2939 34.7585 21.9816 34.3238C21.6153 33.828 21.1619 33.4032 20.6437 33.0703L15.8948 29.9275C15.8106 29.8736 15.7386 29.8026 15.6835 29.7191C15.6284 29.6356 15.5915 29.5413 15.5752 29.4426C15.5423 29.3392 15.5326 29.2298 15.5468 29.1223C15.561 29.0147 15.5988 28.9117 15.6574 28.8204C15.769 28.6471 15.9447 28.5254 16.1459 28.4819C16.2431 28.4577 16.3442 28.4546 16.4427 28.4728C16.5411 28.4909 16.6345 28.5299 16.7167 28.5871L21.461 31.7482C22.5984 32.4186 23.4561 33.4777 23.8765 34.7309C24.2007 35.8608 23.9405 37.0731 23.0912 38.3495C22.6409 39.0934 21.9751 39.6822 21.1825 40.0375C20.45 40.3351 19.646 40.4083 18.872 40.248C18.0018 40.0611 17.1756 39.7086 16.4382 39.2095L11.735 36.1399H11.7259Z" fill="white"/>
<path d="M19.0912 25.7143C19.0194 25.6458 18.9621 25.5635 18.9229 25.4723C18.8837 25.3811 18.8632 25.2829 18.8629 25.1836C18.8611 24.9797 18.938 24.7831 19.0775 24.6346L23.6208 19.8404C23.6898 19.7661 23.7731 19.7067 23.8658 19.6658C23.9584 19.6249 24.0584 19.6033 24.1597 19.6025C24.2611 19.5982 24.3623 19.6144 24.4574 19.65C24.5525 19.6857 24.6395 19.7401 24.7131 19.8101C24.7868 19.8801 24.8457 19.9642 24.8863 20.0574C24.927 20.1506 24.9485 20.251 24.9496 20.3527C24.9538 20.4538 24.9374 20.5546 24.9012 20.649C24.8651 20.7434 24.8101 20.8294 24.7396 20.9017L20.7259 25.1607L23.009 27.3291L26.6071 23.5779C26.6779 23.4991 26.7645 23.4363 26.8614 23.3937C26.9582 23.3511 27.063 23.3297 27.1688 23.3309C27.3873 23.3364 27.5952 23.4266 27.7487 23.5825C27.8215 23.6493 27.8782 23.7317 27.9145 23.8236C27.9509 23.9155 27.966 24.0145 27.9587 24.1131C27.9599 24.3111 27.8865 24.5022 27.7533 24.6484L24.1597 28.363L26.5295 30.6L30.5158 26.373C30.5844 26.2995 30.667 26.2406 30.7588 26.1997C30.8506 26.1588 30.9496 26.1369 31.0501 26.1351C31.254 26.1302 31.4515 26.2064 31.5996 26.3469C31.7476 26.4875 31.834 26.6811 31.84 26.8854C31.8468 26.988 31.8325 27.0908 31.7979 27.1876C31.7633 27.2844 31.7093 27.3731 31.6391 27.4481L27.1186 32.2332C27.0499 32.3063 26.9672 32.3647 26.8753 32.4048C26.7835 32.4449 26.6845 32.4659 26.5843 32.4665C26.484 32.4733 26.3834 32.4589 26.289 32.4242C26.1946 32.3896 26.1085 32.3354 26.0364 32.2652L19.0912 25.7143Z" fill="white"/>
<path d="M34.2464 25.1927C34.0843 25.3137 33.8815 25.3665 33.6811 25.3401C33.4807 25.3136 33.2986 25.2098 33.1733 25.0509L27.2373 17.2739C27.175 17.1966 27.1301 17.1067 27.1057 17.0103C27.0812 16.914 27.0779 16.8136 27.0957 16.7158C27.1284 16.5155 27.2367 16.3354 27.3982 16.2128C27.5596 16.0902 27.762 16.0344 27.9633 16.0571C28.0612 16.0678 28.1558 16.0985 28.2414 16.1473C28.327 16.1961 28.4018 16.2619 28.461 16.3407L33.9405 23.5092L38.5706 19.9638C38.7342 19.872 38.9256 19.843 39.1089 19.8823C39.2923 19.9215 39.4551 20.0263 39.567 20.1771C39.6789 20.3278 39.7321 20.5142 39.7168 20.7014C39.7015 20.8887 39.6187 21.0639 39.4838 21.1944L34.2464 25.1927Z" fill="white"/>
<path d="M42.2875 19.4789C42.1077 19.572 41.8988 19.5911 41.7052 19.5322C41.5116 19.4732 41.3486 19.3408 41.251 19.1632L36.6711 10.5216C36.623 10.4352 36.5941 10.3394 36.5862 10.2407C36.5783 10.142 36.5917 10.0428 36.6254 9.94981C36.6534 9.852 36.701 9.76096 36.7654 9.68229C36.8298 9.60361 36.9096 9.53897 36.9998 9.49234C37.1798 9.39798 37.3891 9.37668 37.5843 9.43287C37.6822 9.45583 37.7739 9.50011 37.8528 9.56258C37.9317 9.62504 37.996 9.70414 38.0409 9.79427L42.2601 17.7634L47.4062 15.0186C47.4948 14.9702 47.5924 14.9404 47.6928 14.9309C47.7933 14.9215 47.8946 14.9326 47.9907 14.9637C48.186 15.024 48.35 15.1587 48.4473 15.3388C48.495 15.4287 48.524 15.5273 48.5326 15.6287C48.5413 15.7301 48.5293 15.8322 48.4975 15.9289C48.4698 16.0268 48.4223 16.118 48.3579 16.1967C48.2935 16.2754 48.2135 16.34 48.1231 16.3864L42.2875 19.4789Z" fill="white"/>
<path d="M51.3012 15.1971C51.1079 15.2671 50.895 15.2584 50.708 15.1728C50.5211 15.0873 50.375 14.9318 50.3012 14.7396L46.8263 5.7412C46.7512 5.55643 46.7512 5.34955 46.8263 5.16479C46.8572 5.07179 46.9085 4.98692 46.9764 4.91645C47.0444 4.84597 47.1273 4.7917 47.219 4.75764C47.3172 4.71586 47.4228 4.69434 47.5295 4.69434C47.6362 4.69434 47.7418 4.71586 47.84 4.75764C47.9355 4.79519 48.0218 4.85309 48.0927 4.92735C48.1637 5.0016 48.2177 5.09042 48.251 5.18766L51.7396 14.1815C51.8081 14.3746 51.7987 14.5868 51.7134 14.773C51.6281 14.9593 51.4737 15.1048 51.283 15.1788L51.3012 15.1971Z" fill="white"/>
<path d="M51.1414 4.11714C51.1157 4.01872 51.1102 3.91611 51.1251 3.81549C51.14 3.71486 51.175 3.61829 51.2281 3.53158C51.2767 3.44508 51.3421 3.36929 51.4206 3.30876C51.499 3.24823 51.5889 3.20421 51.6848 3.17933L59.1551 1.23509C59.2533 1.20937 59.3557 1.20382 59.4562 1.21875C59.5566 1.23369 59.653 1.26881 59.7396 1.32201C59.8259 1.37061 59.9015 1.43618 59.962 1.51479C60.0224 1.5934 60.0663 1.68343 60.0912 1.77948C60.119 1.87691 60.1256 1.97918 60.1107 2.07939C60.0957 2.17961 60.0595 2.27546 60.0044 2.36046C59.9562 2.44765 59.8908 2.52419 59.8124 2.5855C59.7339 2.64681 59.6439 2.69164 59.5478 2.71729L56.5797 3.49041L58.7167 12.0817C58.7415 12.1789 58.7462 12.2802 58.7305 12.3793C58.7148 12.4784 58.679 12.5733 58.6254 12.6581C58.5763 12.7441 58.5106 12.8195 58.4323 12.88C58.3539 12.9404 58.2643 12.9847 58.1688 13.0103C58.0713 13.0362 57.9696 13.0418 57.8699 13.0269C57.7701 13.0119 57.6745 12.9767 57.5889 12.9234C57.502 12.8755 57.426 12.8101 57.3655 12.7314C57.305 12.6527 57.2614 12.5623 57.2373 12.4659L55.082 3.88841L52.0912 4.67068C51.9937 4.69655 51.892 4.70219 51.7922 4.68724C51.6925 4.6723 51.5969 4.63708 51.5112 4.58376C51.4202 4.53655 51.3402 4.47056 51.2764 4.39013C51.2127 4.30971 51.1667 4.21667 51.1414 4.11714Z" fill="white"/>
<path d="M67.5113 0.512276C67.5624 0.372192 67.6547 0.250954 67.7761 0.1646C67.8914 0.0675704 68.0347 0.00992804 68.1849 5.52204e-05C68.3352 -0.0098176 68.4847 0.0285939 68.6117 0.109704C68.7464 0.17442 68.8556 0.282278 68.9222 0.416208L73.8172 9.94985C73.8676 10.0447 73.8971 10.1492 73.904 10.2564C73.9126 10.358 73.9004 10.4603 73.8682 10.557C73.836 10.6538 73.7845 10.7429 73.7167 10.819C73.6511 10.8959 73.5709 10.9589 73.4807 11.0045C73.3906 11.05 73.2923 11.0772 73.1916 11.0844C73.0388 11.0915 72.8874 11.0516 72.7578 10.97C72.6267 10.8987 72.5177 10.7927 72.4428 10.6635L70.9222 7.69453L66.5387 7.93241L65.4062 11.1347C65.3564 11.2754 65.2658 11.3981 65.146 11.4869C65.0298 11.5847 64.8862 11.6439 64.735 11.6562C64.6342 11.6664 64.5323 11.655 64.4363 11.6227C64.3402 11.5903 64.2521 11.5378 64.1779 11.4686C64.0334 11.3447 63.9433 11.169 63.9268 10.9791C63.9192 10.8704 63.9347 10.7612 63.9724 10.6589L67.5113 0.512276ZM68.3697 2.74472L67.0957 6.37702L70.1505 6.20776L68.3697 2.74472Z" fill="white"/>
<path d="M81.6528 0.370517C82.2207 0.431889 82.7721 0.599477 83.2784 0.864583C83.7592 1.11599 84.1908 1.45228 84.5523 1.85729C84.8952 2.24675 85.1505 2.7054 85.3012 3.20225C85.3329 3.30583 85.3422 3.41499 85.3286 3.52247C85.3181 3.62302 85.2871 3.72034 85.2376 3.80845C85.1882 3.89657 85.1212 3.97361 85.0409 4.03484C84.9625 4.09902 84.8719 4.14668 84.7746 4.17497C84.6773 4.20327 84.5753 4.21162 84.4747 4.19953C84.327 4.17662 84.1891 4.11149 84.0775 4.01197C83.9589 3.91998 83.8713 3.79387 83.8263 3.65056C83.6779 3.18299 83.3833 2.77561 82.9861 2.4886C82.5392 2.16411 82.0147 1.96368 81.4656 1.90761C81.1621 1.87447 80.8559 1.87447 80.5523 1.90761C80.2259 1.93789 79.9049 2.01174 79.598 2.1272C79.3149 2.22507 79.0552 2.38086 78.8354 2.58466C78.6341 2.77883 78.508 3.03814 78.4793 3.31661C78.4458 3.54077 78.5016 3.76911 78.6345 3.95249C78.7569 4.1322 78.9118 4.28736 79.0912 4.40996C79.5276 4.6935 80.005 4.90798 80.5067 5.04584C81.0318 5.19681 81.566 5.34777 82.1094 5.50331C82.6274 5.64577 83.1258 5.85165 83.5934 6.11632C83.8886 6.28912 84.1577 6.50324 84.3925 6.7522C84.6451 7.0143 84.8409 7.32576 84.9679 7.66714C85.1081 8.03898 85.1505 8.44067 85.0912 8.83368C85.0413 9.35739 84.8397 9.85509 84.5112 10.2656C84.1854 10.654 83.7786 10.9663 83.3195 11.1805C82.8457 11.4068 82.3409 11.561 81.8218 11.638C81.3158 11.7191 80.801 11.7298 80.2921 11.67C79.6556 11.5996 79.037 11.4152 78.4656 11.1256C77.9284 10.8589 77.4478 10.4908 77.0501 10.0414C76.6706 9.60796 76.3887 9.09776 76.2236 8.54548C76.1885 8.4442 76.1775 8.3361 76.1916 8.22982C76.2027 8.12942 76.2338 8.03228 76.2833 7.94424C76.3327 7.85619 76.3994 7.77906 76.4793 7.71746C76.5576 7.65315 76.6483 7.60573 76.7457 7.57818C76.8431 7.55063 76.9452 7.54354 77.0455 7.55734C77.1956 7.57826 77.3366 7.64175 77.4519 7.74033C77.57 7.8348 77.6548 7.96465 77.6939 8.11088C77.8622 8.66623 78.211 9.14928 78.6848 9.48329C79.2142 9.85628 79.8307 10.0863 80.4747 10.1512C80.9186 10.2028 81.3676 10.1904 81.8081 10.1146C82.229 10.054 82.6305 9.89751 82.9816 9.65712C83.1492 9.5392 83.2884 9.38511 83.3887 9.20618C83.4891 9.02725 83.5481 8.82805 83.5615 8.62325C83.5795 8.49892 83.5718 8.3722 83.5388 8.251C83.5058 8.12979 83.4482 8.01669 83.3697 7.91874C83.218 7.73423 83.0339 7.57917 82.8263 7.46128C82.3556 7.18753 81.8503 6.97828 81.324 6.83912C80.7852 6.69273 80.2464 6.54634 79.7122 6.38165C79.1913 6.23011 78.6958 6.00194 78.2418 5.7046C77.8467 5.43257 77.5098 5.08417 77.251 4.67987C76.962 4.21819 76.8501 3.66716 76.9359 3.12905C76.9842 2.62699 77.1778 2.14999 77.493 1.75665C77.8037 1.37145 78.1949 1.05914 78.6391 0.84171C79.1057 0.61353 79.6048 0.459207 80.1186 0.384241C80.6268 0.307962 81.1433 0.303343 81.6528 0.370517Z" fill="white"/>
<path d="M99.5067 5.03212L99.6117 5.07787C100.376 5.37999 101.064 5.84879 101.625 6.45027C102.119 6.97223 102.492 7.59709 102.717 8.28014C102.934 8.94659 103.024 9.6481 102.982 10.3479C102.946 11.0431 102.791 11.727 102.525 12.3699C102.159 13.2895 101.558 14.0959 100.781 14.7076C100.001 15.2962 99.0656 15.6415 98.0912 15.7003C96.9105 15.7524 95.7341 15.5251 94.6574 15.0369L94.324 14.8951L92.6939 14.2135C92.6019 14.1732 92.5189 14.1148 92.4498 14.0417C92.3808 13.9686 92.3272 13.8823 92.2921 13.7881C92.2525 13.6931 92.2321 13.5913 92.2321 13.4884C92.2321 13.3856 92.2525 13.2837 92.2921 13.1888L95.977 4.46943C96.0145 4.37727 96.0702 4.29368 96.1409 4.2237C96.2115 4.15373 96.2956 4.09882 96.388 4.06229C96.4798 4.02391 96.5784 4.00415 96.6779 4.00415C96.7775 4.00415 96.876 4.02391 96.9679 4.06229L99.5067 5.03212ZM101.278 11.8026C101.627 11.0648 101.74 10.2375 101.603 9.43296C101.443 8.7231 101.062 8.08235 100.516 7.60309C99.8601 7.01458 99.1037 6.54964 98.2829 6.23069C98.0912 6.14834 97.8948 6.07057 97.703 5.99738C97.5113 5.92418 97.3149 5.84641 97.114 5.77322L94.0272 13.0927L94.9405 13.4907C95.784 13.8566 96.6789 14.0896 97.5934 14.1815C98.3467 14.2653 99.1068 14.105 99.7624 13.724C100.463 13.2664 100.996 12.5916 101.278 11.8026Z" fill="white"/>
<path d="M107.794 9.78516C107.848 9.70116 107.918 9.62902 108.001 9.57317C108.083 9.51731 108.176 9.47893 108.274 9.46036C108.473 9.42029 108.679 9.45969 108.849 9.57015L114.393 13.1567C114.478 13.2093 114.552 13.2791 114.61 13.3618C114.667 13.4445 114.707 13.5382 114.726 13.637C114.748 13.7365 114.751 13.8394 114.734 13.9399C114.717 14.0404 114.68 14.1365 114.625 14.2226C114.512 14.393 114.338 14.5126 114.138 14.5562C113.939 14.5997 113.73 14.5638 113.557 14.4559L108.676 11.2857L106.977 13.9527L111.319 16.7982C111.406 16.8519 111.481 16.9232 111.54 17.0074C111.598 17.0917 111.638 17.1871 111.657 17.2876C111.677 17.3953 111.675 17.5057 111.651 17.6125C111.628 17.7194 111.583 17.8204 111.52 17.9098C111.47 17.9905 111.404 18.0595 111.325 18.1124C111.246 18.1652 111.157 18.2007 111.064 18.2163C110.869 18.2536 110.668 18.2143 110.502 18.1065L106.169 15.2702L104.411 18.015L109.301 21.1532C109.387 21.2068 109.461 21.2774 109.518 21.3609C109.576 21.4443 109.615 21.5387 109.635 21.6382C109.657 21.737 109.659 21.8393 109.641 21.9391C109.623 22.0388 109.586 22.134 109.531 22.2192C109.476 22.3043 109.405 22.3777 109.322 22.435C109.238 22.4924 109.145 22.5325 109.045 22.5531C108.948 22.5762 108.846 22.5788 108.747 22.5607C108.648 22.5426 108.554 22.5042 108.47 22.4479L102.936 18.8934C102.85 18.8389 102.776 18.7674 102.719 18.6832C102.661 18.599 102.622 18.5039 102.603 18.4039C102.579 18.3068 102.575 18.2058 102.593 18.1073C102.61 18.0089 102.647 17.9151 102.703 17.832L107.794 9.78516Z" fill="white"/>
<path d="M125.233 23.1936C125.374 23.1498 125.525 23.1498 125.667 23.1936C125.812 23.2298 125.944 23.3077 126.046 23.4177C126.146 23.5303 126.209 23.6707 126.228 23.8203C126.261 23.9647 126.245 24.116 126.182 24.2503L121.744 34.0081C121.703 34.1087 121.639 34.1981 121.557 34.2689C121.483 34.3389 121.395 34.3926 121.299 34.4265C121.203 34.4604 121.101 34.4737 121 34.4656C120.899 34.4628 120.801 34.4395 120.709 34.397C120.618 34.3545 120.537 34.2938 120.47 34.2185C120.374 34.1016 120.311 33.9609 120.288 33.8112C120.265 33.6616 120.282 33.5084 120.338 33.3676L121.708 30.3346L118.808 27.0363L115.584 28.1388C115.436 28.1893 115.276 28.1893 115.128 28.1388C114.979 28.1082 114.843 28.0314 114.74 27.9192C114.669 27.8465 114.615 27.7594 114.581 27.6639C114.547 27.5684 114.534 27.4666 114.543 27.3657C114.545 27.2642 114.568 27.1644 114.611 27.0722C114.653 26.9801 114.714 26.8978 114.79 26.8304C114.871 26.7563 114.968 26.7016 115.073 26.6703L125.233 23.1936ZM124.036 25.2384L120.383 26.4873L122.406 28.7747L124.036 25.2384Z" fill="white"/>
<path d="M122.539 36.666C122.485 36.5796 122.45 36.4828 122.435 36.3819C122.421 36.2811 122.428 36.1783 122.456 36.0804C122.482 35.9845 122.526 35.8945 122.586 35.816C122.646 35.7374 122.722 35.6717 122.808 35.6229L131.027 30.7189L131.146 30.6411C131.209 30.6053 131.279 30.5849 131.351 30.5816C131.43 30.5748 131.51 30.5748 131.589 30.5816C131.696 30.5798 131.802 30.6068 131.895 30.66C131.988 30.7131 132.065 30.7903 132.119 30.8836C132.208 31.0127 132.255 31.1659 132.255 31.3227C132.255 31.4796 132.208 31.6328 132.119 31.7619L128.434 38.7474L136.169 38.5919C136.298 38.5833 136.427 38.6108 136.542 38.6714C136.656 38.732 136.751 38.8232 136.817 38.935C136.93 39.1164 136.969 39.3341 136.927 39.5434C136.909 39.647 136.868 39.7451 136.807 39.8306C136.746 39.9162 136.667 39.9869 136.575 40.0375L128.31 44.9416C128.134 45.0455 127.924 45.0751 127.726 45.0239C127.63 44.9988 127.54 44.9547 127.462 44.8942C127.383 44.8337 127.318 44.758 127.269 44.6717C127.166 44.4956 127.136 44.2856 127.186 44.0876C127.237 43.8896 127.363 43.7196 127.539 43.6149L133.475 40.097L127.201 40.2983C127.076 40.2908 126.954 40.2614 126.84 40.2113C126.711 40.1575 126.604 40.0627 126.534 39.9414C126.459 39.8269 126.416 39.6941 126.41 39.557C126.405 39.42 126.436 39.2841 126.502 39.1637L129.502 33.3951L123.598 36.9267C123.511 36.9797 123.415 37.0143 123.314 37.0284C123.214 37.0426 123.111 37.036 123.014 37.0091C122.816 36.9621 122.645 36.8387 122.539 36.666Z" fill="white"/>
<path d="M140.639 48.3177C140.886 49.0232 140.974 49.7744 140.899 50.5181C140.826 51.2338 140.61 51.9275 140.265 52.5584C139.918 53.196 139.453 53.7612 138.895 54.2236C137.73 55.1845 136.257 55.6885 134.749 55.6418C134.036 55.6143 133.335 55.4497 132.685 55.1568C132.04 54.8665 131.46 54.4478 130.982 53.9262C130.477 53.3689 130.096 52.711 129.863 51.9957C129.61 51.2788 129.51 50.5167 129.571 49.7587C129.632 49.0524 129.841 48.3668 130.182 47.7459C130.53 47.1198 130.995 46.5668 131.552 46.1173C132.138 45.6449 132.803 45.2809 133.516 45.0422C134.219 44.8008 134.961 44.6937 135.703 44.7266C136.423 44.7577 137.13 44.9221 137.79 45.2115C138.443 45.4971 139.033 45.9109 139.525 46.4283C140.029 46.9696 140.409 47.6143 140.639 48.3177ZM139.169 48.8529C138.95 48.168 138.526 47.5674 137.954 47.1328C137.392 46.7067 136.73 46.4326 136.032 46.3369C135.301 46.2333 134.555 46.307 133.858 46.5519C133.369 46.7165 132.917 46.9778 132.53 47.3204C132.156 47.6639 131.847 48.0713 131.616 48.5235C131.374 48.9723 131.22 49.4628 131.16 49.9692C131.11 50.4824 131.17 51.0003 131.338 51.4879C131.505 51.9788 131.778 52.4269 132.137 52.8009C132.492 53.1785 132.913 53.4885 133.379 53.7158C133.844 53.9325 134.343 54.0672 134.854 54.1138C135.349 54.1592 135.849 54.0984 136.319 53.9354C137.04 53.7025 137.69 53.2919 138.21 52.7414C138.705 52.2299 139.062 51.6 139.246 50.9115C139.436 50.2353 139.415 49.5171 139.187 48.8529H139.169Z" fill="white"/>
<path d="M133.831 66.8817C133.735 66.8966 133.637 66.8917 133.542 66.8673C133.448 66.8429 133.36 66.7996 133.283 66.7399C133.206 66.6874 133.141 66.6197 133.092 66.541C133.042 66.4623 133.01 66.3743 132.995 66.2825C132.977 66.1425 133.011 66.0005 133.091 65.8845C133.151 65.7966 133.217 65.7126 133.288 65.6328C133.532 65.1325 133.847 64.6702 134.224 64.2604C134.588 63.8591 134.999 63.5028 135.447 63.1991C135.787 62.9815 136.095 62.7166 136.361 62.4123C136.57 62.1688 136.71 61.8733 136.767 61.5568C136.831 61.1537 136.831 60.7431 136.767 60.3399L136.676 59.6446L132.986 60.189C132.785 60.2141 132.581 60.16 132.418 60.038C132.256 59.916 132.147 59.7357 132.114 59.5348C132.1 59.4329 132.107 59.3291 132.136 59.2305C132.166 59.1318 132.216 59.0406 132.283 58.963C132.417 58.7909 132.614 58.6791 132.831 58.6519L142.283 57.2795C142.383 57.2637 142.485 57.2685 142.583 57.2937C142.682 57.3189 142.774 57.3638 142.854 57.4259C143.014 57.5496 143.121 57.7293 143.155 57.9291L143.452 59.9602L143.479 60.1341C143.608 60.9295 143.591 61.7419 143.429 62.5312C143.301 63.2036 142.984 63.8256 142.516 64.3245C142.025 64.8157 141.38 65.1226 140.689 65.1937C140.238 65.2703 139.775 65.2326 139.342 65.0839C138.944 64.941 138.577 64.7202 138.265 64.4343C137.959 64.1549 137.698 63.8292 137.493 63.469C137.268 63.7013 137.021 63.9126 136.758 64.1003C136.237 64.4816 135.781 64.843 135.388 65.1845C134.979 65.5402 134.642 65.9721 134.397 66.4563C134.346 66.5621 134.271 66.6546 134.178 66.7262C134.078 66.8076 133.958 66.8613 133.831 66.8817ZM141.954 60.3857L141.74 58.9126L138.087 59.4525L138.31 60.9255C138.393 61.6866 138.647 62.4188 139.055 63.0665C139.206 63.299 139.424 63.481 139.679 63.5893C139.934 63.6977 140.216 63.7274 140.488 63.6749C140.781 63.6414 141.058 63.5244 141.286 63.3379C141.514 63.1514 141.684 62.9032 141.776 62.6227C142.023 61.9041 142.084 61.1345 141.954 60.3857Z" fill="white"/>
<path d="M145.995 77.0147C145.973 77.3558 145.856 77.6838 145.657 77.9617C145.464 78.2293 145.204 78.4421 144.904 78.5793C144.6 78.7207 144.265 78.7821 143.931 78.7577C143.593 78.7347 143.266 78.621 142.986 78.4283C142.711 78.2426 142.487 77.9889 142.338 77.6918C142.184 77.3864 142.12 77.0441 142.151 76.7036C142.176 76.3766 142.284 76.0616 142.466 75.7887C142.647 75.5154 142.893 75.2921 143.183 75.1391C143.474 74.9847 143.803 74.9164 144.132 74.9424C144.654 74.9737 145.143 75.2027 145.502 75.5828C145.682 75.7724 145.818 75.9983 145.904 76.2453C145.989 76.4922 146.02 76.7546 145.995 77.0147Z" fill="white"/>
<path d="M141.972 88.2593C142.064 88.285 142.147 88.3332 142.215 88.3995C142.283 88.4659 142.333 88.5482 142.361 88.639C142.43 88.8008 142.443 88.9813 142.397 89.1514C142.334 89.35 142.205 89.521 142.032 89.6363C141.946 89.6942 141.848 89.7311 141.746 89.7438C141.644 89.7565 141.54 89.7448 141.443 89.7095L137.306 88.4331L135.616 93.9456L139.726 95.2403C139.826 95.2569 139.92 95.2983 139.999 95.3606C140.079 95.4229 140.142 95.5042 140.182 95.5971C140.274 95.7793 140.292 95.99 140.233 96.1852C140.173 96.3804 140.041 96.5451 139.863 96.6447C139.778 96.6977 139.682 96.7309 139.582 96.742C139.483 96.7531 139.382 96.7417 139.288 96.7087L129.927 93.7809C129.828 93.757 129.736 93.7113 129.657 93.6472C129.578 93.5831 129.514 93.5022 129.47 93.4104C129.379 93.2292 129.361 93.02 129.42 92.8259C129.479 92.6318 129.609 92.4677 129.785 92.3674C129.869 92.3167 129.962 92.2847 130.059 92.2737C130.156 92.2626 130.254 92.2727 130.347 92.3033L134.1 93.4699L135.794 87.9802L132.041 86.8228C131.943 86.7974 131.851 86.7512 131.772 86.6873C131.694 86.6233 131.63 86.5432 131.584 86.4523C131.495 86.2698 131.479 86.0602 131.54 85.8663C131.6 85.6724 131.732 85.5089 131.909 85.4093C131.995 85.3593 132.091 85.3282 132.19 85.318C132.289 85.3077 132.389 85.3186 132.484 85.3498L137.164 86.7954L141.849 88.241L141.972 88.2593Z" fill="white"/>
<path d="M137.671 100.158C137.76 100.205 137.838 100.27 137.901 100.349C137.964 100.427 138.01 100.518 138.036 100.615C138.069 100.706 138.083 100.802 138.077 100.898C138.07 100.994 138.044 101.088 138 101.174C137.909 101.369 137.745 101.522 137.543 101.599C137.445 101.632 137.341 101.645 137.238 101.635C137.135 101.626 137.035 101.595 136.945 101.544L131.986 99.0006C131.188 98.5382 130.272 98.3218 129.351 98.3784C128.578 98.4638 127.957 98.9564 127.488 99.856C127.166 100.4 127.008 101.026 127.032 101.658C127.076 102.196 127.298 102.703 127.662 103.099C128.078 103.554 128.573 103.929 129.123 104.207L134.173 106.837C134.262 106.884 134.34 106.949 134.403 107.028C134.466 107.107 134.512 107.197 134.539 107.294C134.571 107.39 134.582 107.491 134.573 107.591C134.563 107.691 134.533 107.788 134.484 107.875C134.437 107.967 134.373 108.048 134.295 108.114C134.216 108.18 134.125 108.23 134.027 108.26C133.933 108.294 133.833 108.308 133.733 108.301C133.633 108.294 133.536 108.266 133.447 108.219L128.402 105.593C127.2 105.044 126.237 104.079 125.689 102.875C125.248 101.78 125.383 100.553 126.096 99.1927C126.466 98.407 127.067 97.7528 127.817 97.3171C128.516 96.9422 129.311 96.783 130.1 96.8596C130.997 96.948 131.868 97.2139 132.662 97.6419L137.635 100.185L137.671 100.158Z" fill="white"/>
<path d="M131.443 111.279C131.522 111.339 131.589 111.414 131.637 111.501C131.686 111.587 131.716 111.683 131.726 111.782C131.738 111.882 131.73 111.983 131.702 112.08C131.675 112.176 131.629 112.266 131.566 112.345L127.539 117.569C127.446 117.69 127.321 117.781 127.177 117.83C127.033 117.879 126.878 117.884 126.732 117.845C126.585 117.806 126.453 117.724 126.353 117.61C126.253 117.495 126.189 117.354 126.169 117.203C126.154 117.103 126.16 117 126.186 116.902C126.211 116.804 126.257 116.712 126.319 116.631L129.877 112.002L127.37 110.081L124.173 114.198C124.111 114.28 124.033 114.349 123.943 114.4C123.854 114.451 123.755 114.483 123.653 114.495C123.435 114.513 123.219 114.446 123.05 114.308C122.971 114.247 122.906 114.171 122.86 114.083C122.813 113.996 122.786 113.899 122.781 113.8C122.763 113.602 122.82 113.404 122.94 113.246L126.137 109.156L123.548 107.176L120.018 111.796C119.893 111.958 119.709 112.063 119.507 112.089C119.356 112.108 119.202 112.083 119.066 112.015C118.93 111.947 118.816 111.841 118.74 111.709C118.664 111.577 118.629 111.425 118.638 111.273C118.648 111.121 118.702 110.975 118.794 110.854L122.794 105.625C122.855 105.543 122.932 105.475 123.02 105.425C123.108 105.374 123.205 105.343 123.306 105.332C123.404 105.316 123.505 105.32 123.602 105.346C123.699 105.371 123.789 105.416 123.867 105.478L131.443 111.279Z" fill="white"/>
<path d="M116.383 113.388C116.456 113.317 116.543 113.262 116.638 113.226C116.733 113.191 116.835 113.176 116.936 113.182C117.036 113.181 117.134 113.202 117.226 113.242C117.317 113.282 117.399 113.341 117.466 113.415L124.169 120.538C124.236 120.61 124.287 120.696 124.32 120.788C124.353 120.881 124.367 120.98 124.361 121.078C124.35 121.281 124.262 121.472 124.115 121.611C123.968 121.751 123.773 121.829 123.571 121.828C123.471 121.828 123.373 121.807 123.281 121.767C123.19 121.727 123.108 121.668 123.041 121.595L116.895 115.039L112.653 119.047C112.542 119.151 112.403 119.22 112.253 119.245C112.103 119.27 111.95 119.25 111.811 119.187C111.673 119.125 111.556 119.022 111.476 118.893C111.396 118.764 111.355 118.613 111.361 118.461C111.361 118.36 111.383 118.26 111.424 118.167C111.465 118.074 111.524 117.991 111.598 117.921L116.383 113.388Z" fill="white"/>
<path d="M108.991 119.912C109.074 119.854 109.169 119.814 109.269 119.794C109.369 119.775 109.471 119.776 109.571 119.797C109.669 119.813 109.763 119.85 109.847 119.905C109.93 119.961 110.001 120.033 110.055 120.117L115.525 128.242C115.581 128.324 115.62 128.417 115.638 128.514C115.656 128.612 115.653 128.713 115.63 128.809C115.588 129.01 115.469 129.187 115.298 129.3C115.127 129.413 114.918 129.454 114.717 129.413C114.619 129.398 114.525 129.363 114.442 129.309C114.358 129.255 114.287 129.185 114.233 129.102L109.21 121.618L104.374 124.889C104.291 124.947 104.198 124.987 104.099 125.006C104 125.026 103.898 125.025 103.799 125.003C103.699 124.985 103.604 124.947 103.519 124.891C103.435 124.835 103.362 124.763 103.306 124.678C103.248 124.594 103.209 124.499 103.19 124.399C103.171 124.299 103.173 124.197 103.196 124.097C103.212 123.997 103.25 123.902 103.306 123.818C103.362 123.733 103.435 123.662 103.52 123.608L108.991 119.912Z" fill="white"/>
<path d="M100.456 125.117C100.546 125.071 100.644 125.044 100.744 125.037C100.845 125.03 100.946 125.043 101.041 125.076C101.139 125.104 101.231 125.153 101.309 125.218C101.388 125.283 101.452 125.364 101.498 125.456L105.886 134.038C105.971 134.215 105.989 134.417 105.936 134.605C105.915 134.703 105.873 134.795 105.812 134.874C105.751 134.953 105.673 135.018 105.584 135.063C105.491 135.116 105.388 135.149 105.281 135.162C105.175 135.175 105.066 135.166 104.963 135.136C104.864 135.106 104.773 135.057 104.694 134.99C104.616 134.923 104.552 134.84 104.507 134.747L100.114 126.156C100.025 125.973 100.011 125.762 100.074 125.568C100.137 125.375 100.272 125.213 100.452 125.117H100.456Z" fill="white"/>
<path d="M101.749 136.129C101.817 136.321 101.807 136.531 101.722 136.716C101.636 136.901 101.482 137.045 101.292 137.117L94.0638 139.821C93.8714 139.889 93.6598 139.879 93.4747 139.793C93.3797 139.749 93.2949 139.686 93.2257 139.607C93.1565 139.528 93.1045 139.436 93.0729 139.336C93.0048 139.144 93.0144 138.933 93.0998 138.748C93.1852 138.563 93.3394 138.42 93.5295 138.347L96.4017 137.272L93.388 128.946C93.3517 128.854 93.3353 128.755 93.34 128.655C93.3448 128.556 93.3704 128.459 93.4154 128.37C93.5026 128.186 93.6587 128.043 93.8501 127.973C94.0414 127.902 94.2527 127.91 94.4382 127.995C94.5297 128.033 94.6121 128.09 94.6798 128.163C94.7475 128.236 94.799 128.322 94.8309 128.416L97.8537 136.783L100.749 135.69C100.941 135.621 101.153 135.631 101.338 135.717C101.523 135.795 101.671 135.943 101.749 136.129Z" fill="white"/>
<path d="M85.8446 141.399C85.8068 141.545 85.7256 141.675 85.6117 141.774C85.506 141.879 85.3705 141.95 85.2236 141.975C85.0689 142.002 84.9097 141.981 84.767 141.916C84.6271 141.862 84.5075 141.766 84.4245 141.641L78.6071 132.666C78.5473 132.575 78.5055 132.475 78.4839 132.368C78.459 132.231 78.4725 132.089 78.5227 131.958C78.573 131.827 78.6582 131.713 78.769 131.627C78.8797 131.542 79.0118 131.489 79.1508 131.473C79.2897 131.458 79.4302 131.481 79.5569 131.54C79.6943 131.598 79.8128 131.693 79.8994 131.815L81.7259 134.61L86.0592 133.924L86.8583 130.607C86.8973 130.462 86.9755 130.33 87.0841 130.226C87.1928 130.122 87.3279 130.049 87.4747 130.017C87.5745 129.997 87.6773 129.999 87.7765 130.022C87.8756 130.045 87.9688 130.088 88.0501 130.15C88.1332 130.206 88.2039 130.279 88.2581 130.364C88.3123 130.449 88.3487 130.544 88.3651 130.644C88.3878 130.751 88.3878 130.861 88.3651 130.969L85.8446 141.399ZM84.7624 139.294L85.6756 135.543L82.6482 136.028L84.7624 139.294Z" fill="white"/>
<path d="M71.8583 143C71.2877 142.994 70.7229 142.884 70.1916 142.675C69.6859 142.478 69.2214 142.188 68.8218 141.82C68.4402 141.471 68.1393 141.043 67.9405 140.566C67.8945 140.468 67.8726 140.359 67.8766 140.251C67.8754 140.149 67.8956 140.049 67.9357 139.956C67.9758 139.863 68.035 139.779 68.1094 139.711C68.1813 139.639 68.2669 139.583 68.3611 139.545C68.4552 139.507 68.556 139.489 68.6574 139.491C68.805 139.498 68.9475 139.548 69.0683 139.633C69.1947 139.714 69.2948 139.83 69.356 139.967C69.5505 140.419 69.8872 140.795 70.3149 141.037C70.7924 141.314 71.3342 141.459 71.8857 141.458C72.1926 141.457 72.4985 141.425 72.7989 141.362C73.1153 141.298 73.4221 141.193 73.7122 141.051C73.9825 140.922 74.2234 140.738 74.4199 140.511C74.6015 140.296 74.7017 140.024 74.703 139.743C74.7074 139.516 74.6276 139.296 74.4793 139.125C74.3358 138.958 74.1643 138.817 73.9725 138.709C73.5061 138.484 73.0091 138.33 72.4976 138.251L70.8537 137.968C70.3226 137.885 69.8049 137.732 69.3149 137.51C69.0022 137.372 68.7115 137.189 68.4519 136.966C68.1768 136.735 67.9515 136.45 67.7898 136.129C67.619 135.762 67.5466 135.357 67.5798 134.953C67.582 134.425 67.741 133.909 68.0364 133.471C68.3171 133.046 68.6882 132.688 69.1231 132.423C69.5703 132.147 70.0568 131.94 70.5661 131.81C71.0609 131.68 71.5705 131.616 72.082 131.618C72.7218 131.625 73.3555 131.744 73.9542 131.97C74.5156 132.173 75.032 132.484 75.4747 132.885C75.8971 133.277 76.2318 133.754 76.4565 134.285C76.4977 134.384 76.5194 134.489 76.5204 134.596C76.5195 134.698 76.4981 134.798 76.4572 134.891C76.4164 134.983 76.3571 135.067 76.283 135.136C76.1377 135.278 75.9425 135.357 75.7396 135.356C75.5874 135.35 75.4401 135.301 75.3149 135.214C75.1873 135.133 75.0895 135.012 75.0364 134.871C74.8111 134.34 74.4137 133.902 73.9085 133.626C73.3512 133.311 72.722 133.146 72.082 133.146C71.636 133.139 71.1914 133.198 70.7624 133.32C70.3477 133.43 69.9635 133.633 69.6391 133.915C69.4929 134.046 69.3765 134.206 69.2977 134.386C69.2189 134.566 69.1796 134.761 69.1825 134.958C69.1758 135.084 69.1959 135.21 69.2416 135.327C69.2872 135.445 69.3574 135.551 69.4473 135.639C69.6167 135.812 69.8164 135.951 70.0364 136.051C70.5325 136.273 71.0562 136.427 71.5935 136.508C72.146 136.595 72.6985 136.687 73.2419 136.788C73.7764 136.884 74.2936 137.059 74.7761 137.309C75.1982 137.536 75.5695 137.848 75.8674 138.224C76.1976 138.655 76.3599 139.192 76.324 139.734C76.3251 140.233 76.1824 140.722 75.9131 141.143C75.644 141.555 75.2868 141.901 74.8674 142.158C74.4268 142.436 73.9463 142.644 73.4428 142.776C72.9277 142.924 72.3943 143 71.8583 143Z" fill="white"/>
<path d="M53.5752 140.196L53.4656 140.159C52.6773 139.943 51.9461 139.556 51.324 139.025C50.7785 138.553 50.3422 137.967 50.0455 137.309C49.7678 136.667 49.6129 135.978 49.5889 135.278C49.5555 134.584 49.6389 133.89 49.8355 133.224C50.0982 132.268 50.6142 131.402 51.3286 130.717C52.0377 130.056 52.9257 129.62 53.8811 129.463C55.05 129.289 56.2434 129.393 57.3651 129.765L57.7122 129.871L59.388 130.388C59.5811 130.456 59.7407 130.597 59.8341 130.779C59.9274 130.962 59.9475 131.174 59.8902 131.371L57.1505 140.424C57.0883 140.615 56.9561 140.775 56.7806 140.872C56.6052 140.969 56.3995 140.995 56.2053 140.946L53.5752 140.196ZM51.114 133.663C50.8425 134.432 50.8154 135.266 51.0364 136.051C51.2671 136.744 51.7116 137.347 52.3058 137.771C53.0221 138.285 53.8226 138.669 54.6711 138.906L55.2738 139.075C55.4747 139.13 55.6756 139.185 55.8811 139.23L58.1962 131.641L57.2464 131.339C56.3599 131.06 55.436 130.918 54.5067 130.918C53.7506 130.911 53.012 131.145 52.3971 131.586C51.7527 132.118 51.3017 132.848 51.114 133.663Z" fill="white"/>
<path d="M44.8263 136.348C44.7811 136.439 44.717 136.519 44.6382 136.583C44.5594 136.647 44.4679 136.693 44.3697 136.719C44.2745 136.749 44.1742 136.761 44.0747 136.752C43.9751 136.743 43.8783 136.715 43.7898 136.669L37.8994 133.686C37.8079 133.64 37.7267 133.575 37.6608 133.497C37.5949 133.418 37.5456 133.327 37.5158 133.228C37.4817 133.133 37.4677 133.032 37.4748 132.931C37.4819 132.83 37.5098 132.732 37.5569 132.643C37.6033 132.551 37.6677 132.47 37.7462 132.404C37.8246 132.338 37.9156 132.289 38.0135 132.259C38.2076 132.194 38.4194 132.208 38.6026 132.3L43.808 134.953L45.2053 132.117L40.5889 129.743C40.4959 129.698 40.4133 129.634 40.3465 129.555C40.2796 129.476 40.23 129.384 40.2007 129.285C40.1413 129.073 40.1676 128.846 40.2738 128.654C40.3185 128.564 40.3827 128.485 40.4617 128.423C40.5407 128.362 40.6325 128.318 40.7304 128.297C40.9202 128.241 41.1241 128.259 41.3012 128.347L45.9039 130.717L47.3651 127.803L42.1916 125.191C42.1001 125.144 42.019 125.08 41.953 125.001C41.8871 124.923 41.8378 124.832 41.808 124.733C41.7739 124.638 41.7599 124.537 41.767 124.436C41.7741 124.335 41.8021 124.237 41.8491 124.148C41.8956 124.056 41.96 123.975 42.0384 123.909C42.1169 123.843 42.2078 123.793 42.3058 123.763C42.4006 123.729 42.5017 123.715 42.6024 123.722C42.703 123.729 42.8011 123.757 42.8902 123.805L48.7624 126.764C48.9441 126.857 49.0821 127.017 49.1462 127.211C49.2104 127.404 49.1955 127.616 49.1049 127.798L44.8263 136.348Z" fill="white"/>
<path d="M26.0272 124.765C25.8897 124.821 25.739 124.835 25.5934 124.806C25.4441 124.788 25.304 124.724 25.1916 124.623C25.0855 124.517 25.0098 124.385 24.9724 124.239C24.9246 124.09 24.9246 123.93 24.9724 123.782L28.5249 113.672C28.5551 113.567 28.6099 113.471 28.6848 113.393C28.7515 113.316 28.8336 113.255 28.9256 113.212C29.0177 113.169 29.1176 113.147 29.219 113.146C29.3206 113.14 29.4224 113.154 29.5181 113.189C29.6139 113.224 29.7016 113.277 29.7761 113.347C29.8856 113.451 29.9605 113.587 29.9907 113.736C30.0373 113.885 30.0373 114.044 29.9907 114.193L28.9039 117.341L32.1003 120.369L35.2099 118.997C35.3527 118.931 35.5123 118.912 35.6665 118.942C35.8048 118.96 35.9355 119.015 36.0442 119.103C36.153 119.19 36.2355 119.306 36.2827 119.438C36.3299 119.569 36.34 119.711 36.3118 119.848C36.2837 119.985 36.2184 120.111 36.1231 120.213C36.0507 120.296 35.96 120.36 35.8583 120.401L26.0272 124.765ZM27.0546 122.601L30.566 121.028L28.3423 118.942L27.0546 122.601Z" fill="white"/>
<path d="M27.4291 111.165C27.5486 111.329 27.5992 111.534 27.5702 111.736C27.5412 111.938 27.4349 112.12 27.2738 112.244L19.6345 117.986L19.5249 118.072C19.4687 118.118 19.4006 118.147 19.3286 118.155C19.2502 118.169 19.1708 118.178 19.0912 118.182C18.9846 118.197 18.876 118.182 18.7776 118.138C18.6793 118.094 18.5949 118.024 18.5341 117.935C18.4284 117.819 18.3612 117.674 18.3416 117.518C18.3219 117.362 18.3509 117.204 18.4245 117.066L21.3514 109.747L13.6711 110.707C13.5428 110.728 13.4111 110.714 13.2904 110.666C13.1696 110.617 13.0644 110.537 12.9861 110.433C12.8589 110.264 12.7987 110.053 12.8172 109.843C12.8226 109.737 12.8522 109.635 12.9037 109.543C12.9552 109.45 13.0271 109.372 13.114 109.312L20.84 103.543C20.9208 103.483 21.0131 103.439 21.1112 103.415C21.2094 103.392 21.3113 103.389 21.4108 103.406C21.5111 103.418 21.6079 103.451 21.6951 103.502C21.7824 103.553 21.8581 103.622 21.9176 103.703C21.9785 103.784 22.0225 103.877 22.0468 103.975C22.0711 104.073 22.0753 104.175 22.0592 104.275C22.0456 104.376 22.0119 104.473 21.9602 104.56C21.9084 104.647 21.8396 104.723 21.7578 104.783L16.2373 108.9L22.4565 108.04C22.5818 108.034 22.7071 108.051 22.8263 108.09C22.9583 108.13 23.0737 108.212 23.1551 108.324C23.2418 108.43 23.2982 108.559 23.3183 108.695C23.3384 108.831 23.3215 108.97 23.2692 109.097L20.8492 115.149L26.3286 111.032C26.4098 110.972 26.5019 110.928 26.5999 110.904C26.6978 110.88 26.7996 110.875 26.8994 110.89C27.0019 110.896 27.102 110.924 27.1932 110.971C27.2845 111.018 27.3648 111.084 27.4291 111.165Z" fill="white"/>
<path d="M8.17334 101.439C7.85391 100.761 7.68711 100.02 7.68476 99.2705C7.68403 98.553 7.82526 97.8424 8.10028 97.1799C8.37994 96.5102 8.78441 95.9001 9.29206 95.3821C10.3505 94.3063 11.7651 93.6555 13.2692 93.5522C13.9799 93.5055 14.6929 93.5956 15.3697 93.8175C16.0436 94.038 16.6652 94.3945 17.1962 94.8651C17.7485 95.3782 18.1942 95.9955 18.5077 96.6817C18.8211 97.3678 18.9961 98.1093 19.0227 98.8634C19.0354 99.5714 18.9001 100.274 18.6254 100.927C18.3472 101.585 17.944 102.183 17.4382 102.688C16.9124 103.22 16.2933 103.652 15.6117 103.96C14.9395 104.278 14.2123 104.462 13.4701 104.504C12.7506 104.548 12.0292 104.458 11.3423 104.239C10.6625 104.022 10.0325 103.672 9.48841 103.209C8.92526 102.723 8.4762 102.119 8.17334 101.439ZM9.58887 100.757C9.87518 101.412 10.3528 101.963 10.9587 102.34C11.5637 102.706 12.2525 102.909 12.9587 102.93C13.699 102.954 14.434 102.797 15.1003 102.473C15.5709 102.256 15.9921 101.944 16.3377 101.558C16.6853 101.181 16.9595 100.742 17.1459 100.263C17.3353 99.7922 17.4315 99.2888 17.429 98.781C17.4293 98.2654 17.3154 97.756 17.0957 97.2897C16.8863 96.8193 16.5742 96.4019 16.1825 96.0683C15.788 95.7347 15.3362 95.4758 14.8491 95.3043C14.3651 95.135 13.8549 95.0529 13.3423 95.0618C12.8452 95.07 12.3552 95.1822 11.9039 95.3912C11.2123 95.6937 10.6077 96.1656 10.1459 96.7636C9.70659 97.3233 9.41737 97.9863 9.30576 98.6896C9.18742 99.3916 9.28621 100.113 9.58887 100.757Z" fill="white"/>
<path d="M13.0455 82.2527C13.1394 82.2285 13.2372 82.2237 13.333 82.2386C13.4288 82.2535 13.5205 82.2879 13.6026 82.3396C13.6823 82.3814 13.7525 82.439 13.8091 82.5091C13.8656 82.5791 13.9072 82.66 13.9314 82.7468C13.9661 82.883 13.9465 83.0274 13.8766 83.1493C13.8081 83.2774 13.7487 83.3689 13.7122 83.4238C13.5142 83.9402 13.2485 84.4278 12.9222 84.874C12.5968 85.3099 12.223 85.7074 11.8081 86.0588C11.4875 86.3058 11.2018 86.5951 10.9587 86.9189C10.7737 87.19 10.6648 87.506 10.6437 87.8338C10.6295 88.241 10.6756 88.648 10.7807 89.0415L10.9451 89.7232L14.5569 88.8082C14.752 88.7686 14.9548 88.8047 15.1243 88.9092C15.2938 89.0136 15.4174 89.1787 15.4702 89.3709C15.4957 89.4703 15.4996 89.5741 15.4815 89.6752C15.4633 89.7762 15.4237 89.8722 15.3651 89.9565C15.2466 90.1404 15.0618 90.2715 14.8492 90.3225L5.58889 92.6784C5.49157 92.7057 5.3896 92.712 5.28966 92.6971C5.18972 92.6821 5.09406 92.6461 5.00898 92.5915C4.83689 92.4906 4.71078 92.3265 4.65738 92.134L4.19163 90.1212L4.14596 89.9473C3.938 89.168 3.8715 88.3576 3.94962 87.5548C4.00981 86.8734 4.26155 86.223 4.67564 85.6791C5.11477 85.1473 5.71933 84.7784 6.39254 84.6315C6.84006 84.5092 7.31107 84.5013 7.7624 84.6087C8.17596 84.7055 8.56478 84.8878 8.90396 85.1439C9.2341 85.393 9.52635 85.6889 9.77153 86.0222C9.97078 85.7681 10.1924 85.5323 10.4336 85.3177C10.9131 84.8877 11.3469 84.4806 11.6848 84.1009C12.0544 83.7023 12.3442 83.2364 12.5387 82.7285C12.5783 82.6169 12.6441 82.5165 12.7304 82.4357C12.8199 82.3511 12.9278 82.2884 13.0455 82.2527ZM5.62998 89.5402L5.99528 90.9812L9.55692 90.0663L9.18249 88.6252C9.02224 87.8766 8.69436 87.1743 8.22359 86.5712C8.04877 86.3556 7.81388 86.197 7.5488 86.1155C7.28371 86.034 7.00043 86.0334 6.73501 86.1137C6.4477 86.1775 6.18475 86.3226 5.97749 86.5319C5.77023 86.7411 5.62741 87.0057 5.56606 87.294C5.39445 88.0358 5.41647 88.8094 5.62998 89.5402Z" fill="white"/>
<path d="M-0.000163682 67.0511C0.016589 66.7118 0.127264 66.3839 0.319471 66.1041C0.510312 65.8308 0.767966 65.6112 1.06777 65.4662C1.36758 65.3212 1.69951 65.2558 2.0318 65.2761C2.37028 65.2962 2.69771 65.4042 2.98192 65.5895C3.26613 65.7748 3.49733 66.0309 3.6528 66.3328C3.81241 66.6364 3.88361 66.9788 3.85828 67.321C3.83471 67.6462 3.73117 67.9605 3.55691 68.2359C3.37974 68.5114 3.13638 68.7379 2.84915 68.8947C2.56304 69.0558 2.23588 69.129 1.90851 69.1051C1.38119 69.0893 0.880428 68.8696 0.511252 68.4921C0.327297 68.3031 0.186344 68.0764 0.0980673 67.8277C0.0097904 67.5789 -0.02372 67.314 -0.000163682 67.0511Z" fill="white"/>
<path d="M73.5432 93.7123C73.1236 89.6733 71.1878 85.9449 68.1277 83.282C63.735 79.5399 57.9999 79.9699 54.1779 84.3296L54.0227 84.508C51.4291 87.5776 50.1642 91.9693 50.5478 96.6034C50.9405 101.343 52.9862 105.547 56.1642 108.145C60.5661 111.746 66.251 111.265 69.9907 106.974C72.7304 103.822 73.9998 99.1973 73.5432 93.7077V93.7123Z" fill="white"/>
<path d="M82.5249 106.444C83.4873 107.455 84.6564 108.245 85.9522 108.761C87.248 109.277 88.6397 109.507 90.0322 109.434C91.4247 109.361 92.785 108.987 94.0199 108.338C95.2548 107.69 96.3352 106.781 97.187 105.675L97.2144 105.643C102.548 99.2843 101.616 87.7286 95.3332 82.3122C94.3005 81.3708 93.0849 80.6532 91.7625 80.2045C90.4401 79.7558 89.0394 79.5856 87.6482 79.7046C85.0852 80.0221 82.7447 81.3224 81.1186 83.3323C80.977 83.5016 80.84 83.6709 80.703 83.8493C78.3012 87.0515 77.2692 90.8165 77.5569 95.4278C78.0181 100.08 79.6391 103.676 82.5249 106.444Z" fill="white"/>
<path d="M48.0455 71.5388C45.5615 67.1471 40.4702 65.7519 35.9359 68.2222C34.4714 69.0302 33.1705 70.1055 32.1003 71.3924C30.5555 73.2607 29.4199 75.4334 28.767 77.7695C27.5295 82.0149 27.8766 86.3608 29.7122 89.6637C30.2993 90.7952 31.1108 91.7947 32.0969 92.601C33.0831 93.4073 34.2232 94.0034 35.4473 94.3528C36.6277 94.6432 37.8549 94.6883 39.0533 94.4853C40.2517 94.2823 41.3959 93.8355 42.4154 93.1725C47.7213 89.897 50.0729 84.8603 50.0364 76.8363L50.0044 76.6625C49.8811 76.3239 49.7533 75.9168 49.6163 75.4731C49.2322 74.11 48.7057 72.7913 48.0455 71.5388Z" fill="white"/>
<path d="M97.7167 74.4071C98.2099 78.9406 99.9998 82.6873 103.091 85.5373C106.804 88.9866 110.438 89.9016 114.205 88.3416C117.972 86.7817 119.94 83.5245 120.105 78.6479C120.245 76.0257 119.772 73.4069 118.723 71.0003C117.674 68.5938 116.079 66.466 114.064 64.7866C110.47 61.717 106.835 61.0079 103.26 62.6822C102.057 63.2294 100.987 64.0317 100.123 65.0336C98.6437 66.7903 97.84 69.1966 97.662 72.3806C97.6344 72.8452 97.6344 73.3111 97.662 73.7758C97.662 73.9725 97.6848 74.1738 97.6893 74.3705L97.7167 74.4071Z" fill="white"/>
<path d="M101.826 51.2363C101.625 52.2656 101.484 53.3132 101.224 54.3334C100.402 57.5357 98.6117 60.1661 96.324 62.4901C89.84 69.0776 82.7898 75.0247 75.7304 80.9718C75.2869 81.2813 74.7709 81.4705 74.2327 81.5207C73.2738 81.6717 72.598 81.0633 71.9085 80.496C66.082 75.807 60.2875 71.0722 54.7533 66.04C52.6893 64.1644 50.5478 62.3391 48.9451 60.0243C45.4747 54.9921 44.6345 49.5849 47.2282 43.958C51.7167 34.2231 64.4154 31.9449 72.2008 39.3833C72.6574 39.8408 73.114 40.3349 73.6528 40.8838C73.657 40.8862 73.6617 40.8875 73.6665 40.8875C73.6713 40.8875 73.676 40.8862 73.6802 40.8838C74.1734 40.3486 74.5934 39.8911 75.0044 39.4519C76.8598 37.527 79.1773 36.1113 81.7351 35.3404C84.2929 34.5695 87.0053 34.4691 89.6129 35.0489C92.2204 35.6287 94.6358 36.8692 96.628 38.6517C98.6201 40.4343 100.122 42.6992 100.991 45.2298C101.356 46.3185 101.525 47.4759 101.781 48.6013C101.794 49.5025 101.826 50.3534 101.826 51.2363Z" fill="white"/>
</svg>
