<svg xmlns="http://www.w3.org/2000/svg" viewBox="0 0 319.74 312.59"><defs><style>.cls-1{fill:#ff3041;}</style></defs><g id="Capa_2" data-name="Capa 2"><g id="Capa_1-2" data-name="Capa 1"><path class="cls-1" d="M13.61,103.9a1.23,1.23,0,0,1-.76-.92,1.69,1.69,0,0,1,0-1.12,2,2,0,0,1,.9-1,1.42,1.42,0,0,1,1.3,0l8.72,3.72,5-11.6-8.69-3.75a1.36,1.36,0,0,1-.88-.88,1.65,1.65,0,0,1,0-1.29,1.69,1.69,0,0,1,.9-.92,1.6,1.6,0,0,1,1.27,0L41.1,94.61a1.62,1.62,0,0,1,.87.91,1.74,1.74,0,0,1-.93,2.2,1.53,1.53,0,0,1-1.24,0l-7.9-3.39L27,105.92l7.91,3.37a1.56,1.56,0,0,1,.87.91,1.74,1.74,0,0,1-.94,2.19,1.54,1.54,0,0,1-1.26,0l-9.88-4.2q-4.93-2.11-9.87-4.21Z" transform="translate(0 0)"/><path class="cls-1" d="M25.68,79A1.65,1.65,0,0,1,25,78a1.54,1.54,0,0,1,.2-1.21A1.82,1.82,0,0,1,26.26,76a1.6,1.6,0,0,1,1.29.26l10.22,6.65a10.33,10.33,0,0,0,5.6,2q2.55,0,4.39-2.8a7.07,7.07,0,0,0,1.38-3.81,5.32,5.32,0,0,0-1-3.27,11.1,11.1,0,0,0-2.93-2.74l-10.4-6.87h0a1.56,1.56,0,0,1-.7-1.06A1.61,1.61,0,0,1,34.29,63a1.7,1.7,0,0,1,1.07-.74,1.54,1.54,0,0,1,1.25.23h0L47,69.4a12,12,0,0,1,5.29,6.52c.71,2.47.14,5.12-1.72,7.91a9.36,9.36,0,0,1-4.18,3.69,8.75,8.75,0,0,1-5.06.46A15.22,15.22,0,0,1,36,85.71L25.7,79Z" transform="translate(0 0)"/><path class="cls-1" d="M41.81,56.21a1.61,1.61,0,0,1-.5-1.16,1.73,1.73,0,0,1,.47-1.2l9.95-10.48h0a1.63,1.63,0,0,1,1.18-.52,1.66,1.66,0,0,1,1.73,1.64,1.62,1.62,0,0,1-.46,1.2h0L45.39,55l5,4.74,7.88-8.2A1.63,1.63,0,0,1,59.5,51a1.85,1.85,0,0,1,1.27.55,1.43,1.43,0,0,1,.46,1.16,1.72,1.72,0,0,1-.45,1.17h0L52.91,62l5.19,4.89,8.73-9.24h0A1.64,1.64,0,0,1,68,57.13a1.69,1.69,0,0,1,1.73,1.64A1.64,1.64,0,0,1,69.29,60h0L59.39,70.46a1.62,1.62,0,0,1-1.17.51,1.57,1.57,0,0,1-1.2-.44Z" transform="translate(0 0)"/><path class="cls-1" d="M75,55.07a1.7,1.7,0,0,1-2.35-.31l-13-17h0a1.51,1.51,0,0,1-.31-1.22,1.73,1.73,0,0,1,1.9-1.44,1.58,1.58,0,0,1,1.09.62l12,15.67,10.14-7.75h0a1.69,1.69,0,0,1,2,2.69h0Z" transform="translate(0 0)"/><path class="cls-1" d="M92.61,42.58a1.7,1.7,0,0,1-2.27-.69L80.31,23v0a1.51,1.51,0,0,1-.1-1.25,1.63,1.63,0,0,1,.82-1,1.73,1.73,0,0,1,1.28-.13,1.5,1.5,0,0,1,1,.79l9.24,17.42,11.27-6h0a1.63,1.63,0,0,1,1.28-.12,1.71,1.71,0,0,1,1,.82,1.65,1.65,0,0,1,.11,1.29,1.62,1.62,0,0,1-.82,1h0Z" transform="translate(0 0)"/><path class="cls-1" d="M112.35,33.22a1.72,1.72,0,0,1-2.19-1l-7.61-19.67a1.67,1.67,0,0,1,0-1.26,1.43,1.43,0,0,1,.86-.89,1.74,1.74,0,0,1,1.36,0,1.55,1.55,0,0,1,.9.94L113.31,31a1.72,1.72,0,0,1-1,2.18Z" transform="translate(0 0)"/><path class="cls-1" d="M112,9a1.65,1.65,0,0,1,.19-1.28,1.61,1.61,0,0,1,1-.77h0L129.55,2.7h0a1.65,1.65,0,0,1,1.28.19,1.61,1.61,0,0,1,.77,1,1.55,1.55,0,0,1-.19,1.27,1.62,1.62,0,0,1-1,.78h0l-6.5,1.69,4.68,18.78h0a1.61,1.61,0,0,1-.2,1.26,1.64,1.64,0,0,1-1,.77,1.62,1.62,0,0,1-1.27-.19,1.58,1.58,0,0,1-.77-1v0L120.63,8.5l-6.55,1.71h0a1.62,1.62,0,0,1-1.27-.19A1.59,1.59,0,0,1,112,9Z" transform="translate(0 0)"/><path class="cls-1" d="M147.85,1.12a1.61,1.61,0,0,1,.58-.76,1.55,1.55,0,0,1,1.83-.12,1.47,1.47,0,0,1,.68.67l10.72,20.84a1.65,1.65,0,0,1,.19.67,1.64,1.64,0,0,1-.41,1.23,1.67,1.67,0,0,1-1.15.58,1.64,1.64,0,0,1-.95-.25,1.78,1.78,0,0,1-.69-.67l-3.33-6.49-9.6.52-2.48,7a1.64,1.64,0,0,1-.57.77,1.6,1.6,0,0,1-.9.37,1.56,1.56,0,0,1-1.22-.41A1.59,1.59,0,0,1,140,24a1.68,1.68,0,0,1,.1-.7ZM149.73,6l-2.79,7.94,6.69-.37Z" transform="translate(0 0)"/><path class="cls-1" d="M178.82.81a10,10,0,0,1,3.56,1.08,9.87,9.87,0,0,1,2.79,2.17A7.93,7.93,0,0,1,186.81,7a1.67,1.67,0,0,1,.06.7,1.62,1.62,0,0,1-.63,1.12,1.65,1.65,0,0,1-1.24.36,1.7,1.7,0,0,1-.87-.41,1.61,1.61,0,0,1-.55-.79,5,5,0,0,0-1.84-2.54,6.86,6.86,0,0,0-3.33-1.27,9.23,9.23,0,0,0-2,0,8.06,8.06,0,0,0-2.09.48,4.73,4.73,0,0,0-1.67,1,2.59,2.59,0,0,0-.78,1.6,1.89,1.89,0,0,0,.34,1.39,3.81,3.81,0,0,0,1,1,11.09,11.09,0,0,0,3.1,1.39c1.15.33,2.32.66,3.51,1a14.31,14.31,0,0,1,3.25,1.34,7.87,7.87,0,0,1,1.75,1.39,5.79,5.79,0,0,1,1.26,2,5.07,5.07,0,0,1,.27,2.55,5.9,5.9,0,0,1-1.27,3.13,7.6,7.6,0,0,1-2.61,2,11.55,11.55,0,0,1-3.28,1,12.2,12.2,0,0,1-3.35.07,11.71,11.71,0,0,1-4-1.19,10.19,10.19,0,0,1-3.1-2.37,8.78,8.78,0,0,1-1.81-3.27,1.5,1.5,0,0,1-.07-.69,1.64,1.64,0,0,1,.63-1.12,1.61,1.61,0,0,1,1.24-.35,1.74,1.74,0,0,1,.89.4,1.55,1.55,0,0,1,.53.81,5.69,5.69,0,0,0,2.17,3,8.25,8.25,0,0,0,3.92,1.46,10.26,10.26,0,0,0,2.92-.08,6.09,6.09,0,0,0,2.57-1A3,3,0,0,0,183,18.85a2,2,0,0,0-.42-1.54,4.27,4.27,0,0,0-1.19-1,13.33,13.33,0,0,0-3.29-1.36c-1.18-.32-2.36-.64-3.53-1a12,12,0,0,1-3.22-1.48,7.88,7.88,0,0,1-2.17-2.24,4.92,4.92,0,0,1-.69-3.39,5.66,5.66,0,0,1,1.22-3,7.41,7.41,0,0,1,2.51-2,11,11,0,0,1,3.24-1A12.06,12.06,0,0,1,178.82.81Z" transform="translate(0 0)"/><path class="cls-1" d="M217.92,11l.23.1a12.13,12.13,0,0,1,4.41,3,10.67,10.67,0,0,1,2.39,4,12.19,12.19,0,0,1,.58,4.52,13.3,13.3,0,0,1-1,4.42,12.28,12.28,0,0,1-3.82,5.11,10.87,10.87,0,0,1-5.89,2.17,16.48,16.48,0,0,1-7.52-1.45l-.73-.31L203,31.07a1.64,1.64,0,0,1-.88-.93,1.7,1.7,0,0,1,0-1.31l8.07-19.06a1.61,1.61,0,0,1,.9-.89,1.65,1.65,0,0,1,1.27,0ZM221.8,25.8a8.69,8.69,0,0,0,.71-5.18,7.51,7.51,0,0,0-2.38-4,16,16,0,0,0-4.89-3c-.42-.18-.85-.35-1.27-.51s-.85-.33-1.29-.49l-6.76,16,2,.87A19.52,19.52,0,0,0,213.73,31a7.76,7.76,0,0,0,4.75-1A8.4,8.4,0,0,0,221.8,25.8Z" transform="translate(0 0)"/><path class="cls-1" d="M236.07,21.39a1.6,1.6,0,0,1,1.05-.71,1.7,1.7,0,0,1,1.26.24l12.14,7.84h0a1.59,1.59,0,0,1,.73,1.05,1.69,1.69,0,0,1-.22,1.28,1.72,1.72,0,0,1-2.34.51v0L238,24.67l-3.72,5.83,9.51,6.22a1.62,1.62,0,0,1,.74,1.07,1.8,1.8,0,0,1-.3,1.36,1.46,1.46,0,0,1-1,.67,1.68,1.68,0,0,1-1.23-.24h0l-9.49-6.2-3.85,6,10.71,6.86v0a1.61,1.61,0,0,1,.73,1.06,1.67,1.67,0,0,1-1.29,2,1.6,1.6,0,0,1-1.26-.23h0l-12.12-7.77a1.63,1.63,0,0,1-.73-1.07,1.57,1.57,0,0,1,.22-1.25Z" transform="translate(0 0)"/><path class="cls-1" d="M274.26,50.7a1.61,1.61,0,0,1,.95,0,1.69,1.69,0,0,1,.83.49,1.63,1.63,0,0,1,.4.88,1.46,1.46,0,0,1-.1.94l-9.72,21.33a1.49,1.49,0,0,1-.41.57,1.59,1.59,0,0,1-1.22.43,1.61,1.61,0,0,1-1.16-.54,1.85,1.85,0,0,1-.29-1.86l3-6.63-6.35-7.21-7.06,2.41a1.55,1.55,0,0,1-1,0,1.59,1.59,0,0,1-.85-.48,1.54,1.54,0,0,1-.43-1.21,1.61,1.61,0,0,1,.54-1.17,1.59,1.59,0,0,1,.62-.35Zm-2.62,4.47-8,2.73,4.43,5Z" transform="translate(0 0)"/><path class="cls-1" d="M268.36,80.15a1.59,1.59,0,0,1-.18-1.28,1.62,1.62,0,0,1,.77-1l18-10.72.26-.17a1,1,0,0,1,.45-.13,3,3,0,0,1,.52,0,1.31,1.31,0,0,1,1.16.66,1.69,1.69,0,0,1,0,1.92l-8.07,15.27,16.94-.34a1.53,1.53,0,0,1,1.42.75,1.83,1.83,0,0,1,.24,1.33,1.53,1.53,0,0,1-.77,1.08L281,98.24a1.69,1.69,0,0,1-1.28.18,1.62,1.62,0,0,1-1-.77,1.69,1.69,0,0,1,.59-2.31l13-7.69-13.74.44a2.32,2.32,0,0,1-.79-.19,1.39,1.39,0,0,1-.67-.59,1.65,1.65,0,0,1-.07-1.7L283.61,73l-12.93,7.72h0a1.63,1.63,0,0,1-1.28.18A1.68,1.68,0,0,1,268.36,80.15Z" transform="translate(0 0)"/><path class="cls-1" d="M308,105.62a11.16,11.16,0,0,1,.57,4.81,11.8,11.8,0,0,1-1.39,4.46,12.43,12.43,0,0,1-3,3.64,13.62,13.62,0,0,1-9.08,3.1,12.17,12.17,0,0,1-4.52-1.06,11.43,11.43,0,0,1-3.73-2.69,11.67,11.67,0,0,1-2.45-4.22,11.85,11.85,0,0,1-.64-4.89,11.12,11.12,0,0,1,1.34-4.4,12.18,12.18,0,0,1,3-3.56,13.86,13.86,0,0,1,4.3-2.35,13,13,0,0,1,4.79-.69,12.77,12.77,0,0,1,4.57,1.06,11.71,11.71,0,0,1,3.8,2.66A11.14,11.14,0,0,1,308,105.62Zm-3.22,1.17a7.64,7.64,0,0,0-2.66-3.76,9,9,0,0,0-4.21-1.74,10.11,10.11,0,0,0-4.76.47,8.46,8.46,0,0,0-2.91,1.68,9.34,9.34,0,0,0-2,2.63,8.84,8.84,0,0,0-1,3.16,7.86,7.86,0,0,0,.39,3.32,7.77,7.77,0,0,0,1.75,2.87,9.39,9.39,0,0,0,2.72,2,9.76,9.76,0,0,0,3.23.87,7.68,7.68,0,0,0,3.21-.39,9.88,9.88,0,0,0,4.14-2.61,9.14,9.14,0,0,0,2.27-4A7.55,7.55,0,0,0,304.82,106.79Z" transform="translate(0 0)"/><path class="cls-1" d="M293.09,146.2a1.57,1.57,0,0,1-1.2-.31,1.49,1.49,0,0,1-.63-1,1.24,1.24,0,0,1,.21-.87,5.66,5.66,0,0,1,.43-.55,12.61,12.61,0,0,1,2.05-3,14.9,14.9,0,0,1,2.68-2.32,9.33,9.33,0,0,0,2-1.72,3.92,3.92,0,0,0,.89-1.87,8.51,8.51,0,0,0,0-2.66l-.2-1.52-8.08,1.19h0a1.72,1.72,0,0,1-1.91-1.43,1.57,1.57,0,0,1,.37-1.25,1.81,1.81,0,0,1,1.2-.68l20.7-3a1.63,1.63,0,0,1,1.25.32,1.76,1.76,0,0,1,.66,1.1l.65,4.44.06.38a14.47,14.47,0,0,1-.11,5.24,7.89,7.89,0,0,1-2,3.92,6.62,6.62,0,0,1-4,1.9,6,6,0,0,1-2.95-.24,7,7,0,0,1-2.36-1.42,8.67,8.67,0,0,1-1.69-2.11,11.69,11.69,0,0,1-1.61,1.38q-1.71,1.25-3,2.37a9.17,9.17,0,0,0-2.17,2.78,1.65,1.65,0,0,1-.48.59A1.61,1.61,0,0,1,293.09,146.2ZM310.88,132l-.47-3.22-8,1.18.49,3.22a11,11,0,0,0,1.63,4.68,3.06,3.06,0,0,0,3.14,1.33,3.37,3.37,0,0,0,2.82-2.3A9.84,9.84,0,0,0,310.88,132Z" transform="translate(0 0)"/><path class="cls-1" d="M319.73,168.35a4,4,0,0,1-.74,2.07,4.18,4.18,0,0,1-1.65,1.35,4.31,4.31,0,0,1-2.13.39,4.15,4.15,0,0,1-2.07-.72,4.24,4.24,0,0,1-1.42-1.61,4,4,0,0,1-.41-2.16,4.18,4.18,0,0,1,.69-2,4.28,4.28,0,0,1,1.57-1.42,3.81,3.81,0,0,1,2.08-.43,4.5,4.5,0,0,1,3,1.4A4,4,0,0,1,319.73,168.35Z" transform="translate(0 0)"/><path class="cls-1" d="M310.92,192.93a1.24,1.24,0,0,1,.85.83,1.71,1.71,0,0,1,.08,1.12,2,2,0,0,1-.8,1.06,1.43,1.43,0,0,1-1.29.16l-9.06-2.79L297,205.36l9,2.83a1.33,1.33,0,0,1,1,.78,1.73,1.73,0,0,1-.7,2.29,1.47,1.47,0,0,1-1.26.14L284.54,205a1.5,1.5,0,0,1-1-.81,1.73,1.73,0,0,1,.69-2.28,1.48,1.48,0,0,1,1.23-.14l8.22,2.55,3.71-12-8.22-2.53a1.55,1.55,0,0,1-1-.81,1.74,1.74,0,0,1,.71-2.28,1.55,1.55,0,0,1,1.26-.13l10.25,3.16,10.26,3.16Z" transform="translate(0 0)"/><path class="cls-1" d="M301.5,218.94a1.61,1.61,0,0,1,.8,1,1.52,1.52,0,0,1-.08,1.22,1.82,1.82,0,0,1-1,.93,1.62,1.62,0,0,1-1.31-.12l-10.86-5.56a10.27,10.27,0,0,0-5.77-1.36q-2.54.28-4.08,3.23a7.19,7.19,0,0,0-1,3.94,5.3,5.3,0,0,0,1.38,3.15,11.17,11.17,0,0,0,3.2,2.42l11.06,5.75h0a1.62,1.62,0,0,1,.8,1,1.57,1.57,0,0,1-.12,1.27,1.67,1.67,0,0,1-1,.84,1.56,1.56,0,0,1-1.27-.09l0,0-11.05-5.74a12,12,0,0,1-5.94-5.94q-1.45-3.59.89-8.05a9.36,9.36,0,0,1,3.77-4.1,8.8,8.8,0,0,1,5-1,14.92,14.92,0,0,1,5.61,1.71l10.89,5.56Z" transform="translate(0 0)"/><path class="cls-1" d="M287.86,243.25a1.56,1.56,0,0,1,.62,1.1,1.66,1.66,0,0,1-.35,1.23L279.31,257h0a1.68,1.68,0,0,1-3-.8,1.64,1.64,0,0,1,.33-1.25h0l7.79-10.12-5.49-4.2-7,9a1.67,1.67,0,0,1-1.14.65,1.85,1.85,0,0,1-1.32-.41,1.5,1.5,0,0,1-.59-1.11,1.74,1.74,0,0,1,.35-1.21h0l7-8.94-5.67-4.33-7.73,10.1h0a1.69,1.69,0,0,1-1.12.64,1.69,1.69,0,0,1-1.56-2.7h0l8.76-11.43a1.61,1.61,0,0,1,1.12-.64,1.57,1.57,0,0,1,1.23.32Z" transform="translate(0 0)"/><path class="cls-1" d="M254.88,247.86a1.59,1.59,0,0,1,1.21-.45,1.55,1.55,0,0,1,1.16.51l14.68,15.57h0a1.59,1.59,0,0,1,.42,1.18,1.73,1.73,0,0,1-1.73,1.64,1.58,1.58,0,0,1-1.16-.51L256,251.47l-9.29,8.76h0a1.68,1.68,0,0,1-2.83-1.28,1.63,1.63,0,0,1,.52-1.18h0Z" transform="translate(0 0)"/><path class="cls-1" d="M238.69,262.12a1.63,1.63,0,0,1,1.27-.25,1.55,1.55,0,0,1,1.06.7L253,280.33h0a1.55,1.55,0,0,1,.23,1.24,1.7,1.7,0,0,1-2,1.32,1.55,1.55,0,0,1-1.06-.68l-11-16.36L228.58,273h0a1.6,1.6,0,0,1-1.26.25,1.65,1.65,0,0,1-1.08-.71,1.61,1.61,0,0,1-.24-1.27,1.56,1.56,0,0,1,.71-1.07h0Z" transform="translate(0 0)"/><path class="cls-1" d="M220,273.5a1.63,1.63,0,0,1,1.28-.09,1.61,1.61,0,0,1,1,.83L231.89,293a1.75,1.75,0,0,1,.11,1.24,1.46,1.46,0,0,1-.77,1,1.77,1.77,0,0,1-1.36.16,1.63,1.63,0,0,1-1-.85l-9.62-18.78a1.72,1.72,0,0,1,.74-2.27Z" transform="translate(0 0)"/><path class="cls-1" d="M222.83,297.57a1.7,1.7,0,0,1-1,2.16h0L206,305.64l0,0a1.7,1.7,0,0,1-1.29-.06,1.65,1.65,0,0,1-.88-1,1.7,1.7,0,0,1,1-2.16h0l6.29-2.35-6.6-18.2v0a1.54,1.54,0,0,1,.06-1.26,1.7,1.7,0,0,1,2.24-.82,1.53,1.53,0,0,1,.86.92v0L214.3,299l6.34-2.39h0a1.7,1.7,0,0,1,1.29.06A1.68,1.68,0,0,1,222.83,297.57Z" transform="translate(0 0)"/><path class="cls-1" d="M188,309.09a1.62,1.62,0,0,1-.51.82,1.59,1.59,0,0,1-.85.44,1.7,1.7,0,0,1-1-.13,1.58,1.58,0,0,1-.75-.6L172.15,290a1.84,1.84,0,0,1-.27-.65,1.67,1.67,0,0,1,2.35-1.81,1.76,1.76,0,0,1,.75.6l4,6.11,9.49-1.5,1.75-7.25a1.8,1.8,0,0,1,1.35-1.29,1.59,1.59,0,0,1,1.26.29,1.63,1.63,0,0,1,.69,1.08,1.71,1.71,0,0,1,0,.71Zm-2.37-4.6,2-8.2L181,297.35Z" transform="translate(0 0)"/><path class="cls-1" d="M157.37,312.59a10.31,10.31,0,0,1-3.65-.71,9.57,9.57,0,0,1-3-1.87,7.74,7.74,0,0,1-1.93-2.74,1.5,1.5,0,0,1-.14-.69,1.58,1.58,0,0,1,.51-1.18,1.65,1.65,0,0,1,1.2-.48,1.71,1.71,0,0,1,.9.31,1.68,1.68,0,0,1,.63.73,4.93,4.93,0,0,0,2.1,2.34,6.86,6.86,0,0,0,3.44.92,9.93,9.93,0,0,0,2-.21,8.36,8.36,0,0,0,2-.68,4.79,4.79,0,0,0,1.55-1.18,2.62,2.62,0,0,0,.62-1.68,2,2,0,0,0-.49-1.35,4.15,4.15,0,0,0-1.11-.91,11.45,11.45,0,0,0-3.23-1l-3.6-.62a13.06,13.06,0,0,1-3.37-1,7.66,7.66,0,0,1-1.89-1.19,5.79,5.79,0,0,1-1.45-1.83A5.09,5.09,0,0,1,148,295a5.83,5.83,0,0,1,1-3.24,7.56,7.56,0,0,1,2.38-2.29,11.35,11.35,0,0,1,3.16-1.34,12.86,12.86,0,0,1,3.32-.42,12,12,0,0,1,4.1.77,10.06,10.06,0,0,1,3.33,2,8.91,8.91,0,0,1,2.15,3.06,1.8,1.8,0,0,1,.14.68,1.63,1.63,0,0,1-.52,1.18,1.69,1.69,0,0,1-1.19.48,1.75,1.75,0,0,1-.93-.31,1.52,1.52,0,0,1-.61-.75,5.59,5.59,0,0,0-2.47-2.72,8.13,8.13,0,0,0-4-1.05,10,10,0,0,0-2.89.38,6.17,6.17,0,0,0-2.46,1.3,3,3,0,0,0-1,2.28,1.94,1.94,0,0,0,.58,1.49,4.3,4.3,0,0,0,1.29.9,13.21,13.21,0,0,0,3.41,1c1.21.19,2.42.39,3.61.61a11.9,11.9,0,0,1,3.36,1.14,7.72,7.72,0,0,1,2.39,2,4.89,4.89,0,0,1,1,3.3,5.68,5.68,0,0,1-.9,3.08,7.26,7.26,0,0,1-2.29,2.22,11.17,11.17,0,0,1-3.12,1.35A12.53,12.53,0,0,1,157.37,312.59Z" transform="translate(0 0)"/><path class="cls-1" d="M117.33,306.46l-.24-.08a12.19,12.19,0,0,1-4.69-2.48,10.86,10.86,0,0,1-2.8-3.75,12.23,12.23,0,0,1-1-4.44,13.54,13.54,0,0,1,.54-4.49,12,12,0,0,1,3.27-5.48A10.77,10.77,0,0,1,118,283a16.53,16.53,0,0,1,7.63.66l.76.23,3.67,1.13a1.76,1.76,0,0,1,1.1,2.15l-6,19.79a1.73,1.73,0,0,1-2.07,1.14Zm-5.39-14.28a8.63,8.63,0,0,0-.17,5.22,7.55,7.55,0,0,0,2.78,3.76,16.54,16.54,0,0,0,5.18,2.48l1.32.37c.44.12.88.24,1.33.34l5.07-16.59-2.08-.66a20,20,0,0,0-6-.92,7.82,7.82,0,0,0-4.62,1.46A8.3,8.3,0,0,0,111.94,292.18Z" transform="translate(0 0)"/><path class="cls-1" d="M98.17,298.05a1.55,1.55,0,0,1-1,.81,1.65,1.65,0,0,1-1.27-.11L83,292.23h0a1.66,1.66,0,0,1-.84-1,1.59,1.59,0,0,1,.09-1.28,1.67,1.67,0,0,1,1-.84,1.69,1.69,0,0,1,1.29.09h0L95.94,295,99,288.8l-10.11-5.19a1.62,1.62,0,0,1-.85-1,1.83,1.83,0,0,1,.16-1.38,1.47,1.47,0,0,1,1-.78,1.72,1.72,0,0,1,1.25.11h0l10.08,5.18,3.2-6.37L92.4,273.66h0a1.66,1.66,0,0,1-.84-1,1.59,1.59,0,0,1,.09-1.28,1.67,1.67,0,0,1,1-.84,1.58,1.58,0,0,1,1.28.09h0l12.86,6.47a1.69,1.69,0,0,1,.75,2.26Z" transform="translate(0 0)"/><path class="cls-1" d="M57,272.73a1.67,1.67,0,0,1-.95.09,1.63,1.63,0,0,1-.88-.4,1.83,1.83,0,0,1-.48-.84,1.63,1.63,0,0,1,0-1l7.78-22.1a1.48,1.48,0,0,1,.35-.61,1.58,1.58,0,0,1,1.17-.54,1.65,1.65,0,0,1,1.22.44,1.62,1.62,0,0,1,.47.85,1.67,1.67,0,0,1,0,1L63.3,256.5l7,6.62,6.81-3a1.66,1.66,0,0,1,1-.12,1.66,1.66,0,0,1,1,2.78,1.53,1.53,0,0,1-.58.41ZM59.25,268l7.69-3.44L62.07,260Z" transform="translate(0 0)"/><path class="cls-1" d="M60.07,243a1.71,1.71,0,0,1-.34,2.36L43,257.91l-.24.19a.83.83,0,0,1-.43.18,3.92,3.92,0,0,1-.52.06,1.27,1.27,0,0,1-1.22-.54,1.66,1.66,0,0,1-.24-1.9l6.41-16L29.94,242a1.56,1.56,0,0,1-1.5-.6,1.87,1.87,0,0,1-.37-1.29,1.5,1.5,0,0,1,.65-1.16l16.92-12.61a1.62,1.62,0,0,1,1.25-.3,1.61,1.61,0,0,1,1.11.65,1.64,1.64,0,0,1,.31,1.25,1.65,1.65,0,0,1-.66,1.11l-12.09,9,13.62-1.88a2.27,2.27,0,0,1,.81.11,1.39,1.39,0,0,1,.72.51,1.67,1.67,0,0,1,.25,1.69l-5.3,13.23,12-9v0a1.68,1.68,0,0,1,1.25-.31A1.61,1.61,0,0,1,60.07,243Z" transform="translate(0 0)"/><path class="cls-1" d="M17.9,221.74A11.19,11.19,0,0,1,16.83,217a11.87,11.87,0,0,1,.91-4.57,12.49,12.49,0,0,1,2.61-3.93,13.53,13.53,0,0,1,8.71-4,12.22,12.22,0,0,1,4.6.58,11.36,11.36,0,0,1,4,2.29,12.52,12.52,0,0,1,4,8.74,11.09,11.09,0,0,1-.87,4.51,12.07,12.07,0,0,1-2.6,3.85,13.34,13.34,0,0,1-4,2.78,12.64,12.64,0,0,1-4.69,1.19,12.8,12.8,0,0,1-4.66-.58,11.83,11.83,0,0,1-4.06-2.25A11.05,11.05,0,0,1,17.9,221.74ZM21,220.25a7.72,7.72,0,0,0,3,3.46A9,9,0,0,0,28.38,225a10,10,0,0,0,4.69-1,8.29,8.29,0,0,0,2.71-2,9,9,0,0,0,1.77-2.83,8.56,8.56,0,0,0,.62-3.24,7.63,7.63,0,0,0-.73-3.26,7.53,7.53,0,0,0-2-2.67,9.32,9.32,0,0,0-2.92-1.67,9.51,9.51,0,0,0-3.3-.53,7.81,7.81,0,0,0-3.15.72,9.85,9.85,0,0,0-3.85,3,9.13,9.13,0,0,0-1.84,4.21A7.63,7.63,0,0,0,21,220.25Z" transform="translate(0 0)"/><path class="cls-1" d="M28.57,179.8a1.56,1.56,0,0,1,1.22.19,1.44,1.44,0,0,1,.72.89,1.18,1.18,0,0,1-.12.88c-.15.28-.28.48-.36.6a13.64,13.64,0,0,1-1.73,3.17,15.72,15.72,0,0,1-2.44,2.59A9.8,9.8,0,0,0,24,190a4,4,0,0,0-.69,2,9,9,0,0,0,.3,2.64l.36,1.49,7.91-2h0a1.72,1.72,0,0,1,2,1.23,1.56,1.56,0,0,1-.23,1.28,1.86,1.86,0,0,1-1.13.8l-20.28,5.15a1.57,1.57,0,0,1-1.27-.19,1.68,1.68,0,0,1-.77-1L9.18,197l-.1-.38a14.72,14.72,0,0,1-.43-5.23,7.91,7.91,0,0,1,1.59-4.1A6.74,6.74,0,0,1,14,185a6.07,6.07,0,0,1,3-.05,6.68,6.68,0,0,1,2.5,1.17,9.34,9.34,0,0,1,1.9,1.92,11.82,11.82,0,0,1,1.45-1.54c1.05-.94,2-1.83,2.74-2.66a9.3,9.3,0,0,0,1.87-3,1.62,1.62,0,0,1,.42-.64A1.74,1.74,0,0,1,28.57,179.8ZM12.33,195.73l.8,3.15,7.8-2-.82-3.15a11.05,11.05,0,0,0-2.1-4.49,3.06,3.06,0,0,0-3.26-1,3.36,3.36,0,0,0-2.56,2.58A9.69,9.69,0,0,0,12.33,195.73Z" transform="translate(0 0)"/><path class="cls-1" d="M0,146.57a4,4,0,0,1,.7-2.07,4.26,4.26,0,0,1,3.75-1.81A4.28,4.28,0,0,1,8,145a4,4,0,0,1,.45,2.16,4.32,4.32,0,0,1-.66,2,4.28,4.28,0,0,1-1.55,1.44,3.66,3.66,0,0,1-2.06.46,4.47,4.47,0,0,1-3.06-1.34A4,4,0,0,1,0,146.57Z" transform="translate(0 0)"/><path class="cls-1" d="M161.06,204.85a35,35,0,0,0-11.86-22.8c-9.62-8.18-22.18-7.24-30.55,2.29l-.34.39c-5.68,6.71-8.45,16.31-7.61,26.44.86,10.36,5.34,19.55,12.3,25.23,9.64,7.87,22.09,6.82,30.28-2.56,6-6.89,8.78-17,7.78-29Z" transform="translate(0 0)"/><path class="cls-1" d="M180.73,232.68A21.19,21.19,0,0,0,212.84,231l.06-.07c11.68-13.9,9.64-39.16-4.12-51a22.2,22.2,0,0,0-16.83-5.7,21.86,21.86,0,0,0-14.3,7.93c-.31.37-.61.74-.91,1.13-5.26,7-7.52,15.23-6.89,25.31v0C170.86,218.77,174.41,226.63,180.73,232.68Z" transform="translate(0 0)"/><path class="cls-1" d="M105.22,156.38c-5.44-9.6-16.59-12.65-26.52-7.25a29.38,29.38,0,0,0-8.4,6.93A37.85,37.85,0,0,0,63,170c-2.71,9.28-1.95,18.78,2.07,26a20.48,20.48,0,0,0,12.56,10.25,19.49,19.49,0,0,0,15.26-2.58c11.62-7.16,16.77-18.17,16.69-35.71l-.07-.38c-.27-.74-.55-1.63-.85-2.6A44.05,44.05,0,0,0,105.22,156.38Z" transform="translate(0 0)"/><path class="cls-1" d="M214,162.65c1.08,9.91,5,18.1,11.77,24.33,8.13,7.54,16.09,9.54,24.34,6.13s12.56-10.53,12.92-21.19a36.85,36.85,0,0,0-13.23-30.3c-7.87-6.71-15.83-8.26-23.66-4.6a20,20,0,0,0-6.87,5.14c-3.24,3.84-5,9.1-5.39,16.06a25.73,25.73,0,0,0,0,3.05c0,.43.05.87.06,1.3Z" transform="translate(0 0)"/><path class="cls-1" d="M223,112c-.44,2.25-.75,4.54-1.32,6.77-1.8,7-5.72,12.75-10.73,17.83C196.75,151,181.31,164,165.85,177a6.85,6.85,0,0,1-3.28,1.2c-2.1.33-3.58-1-5.09-2.24-12.76-10.25-25.45-20.6-37.57-31.6-4.52-4.1-9.21-8.09-12.72-13.15-7.6-11-9.44-22.82-3.76-35.12,9.83-21.28,37.64-26.26,54.69-10,1,1,2,2.08,3.18,3.28a.06.06,0,0,0,.06,0c1.08-1.17,2-2.17,2.9-3.13a34.18,34.18,0,0,1,56.91,12.63c.8,2.38,1.17,4.91,1.73,7.37C222.93,108.21,223,110.07,223,112Z" transform="translate(0 0)"/></g></g></svg>