<svg width="33" height="32" viewBox="0 0 33 32" fill="none" xmlns="http://www.w3.org/2000/svg">
<g clip-path="url(#clip0_279_311)">
<path d="M25.8744 11.5752L24.9865 10.7888L25.8083 9.89869C25.9333 9.7637 26.0298 9.60597 26.0923 9.43453C26.1548 9.26309 26.182 9.08131 26.1724 8.89959C26.1629 8.71787 26.1167 8.53978 26.0365 8.3755C25.9563 8.21123 25.8437 8.064 25.7052 7.94224L24.8302 7.16846L30.2703 1.26607C30.3385 1.19203 30.3912 1.10559 30.4252 1.0117C30.4592 0.917803 30.4739 0.818288 30.4686 0.718835C30.4632 0.619382 30.4378 0.521938 30.3938 0.432067C30.3498 0.342196 30.2881 0.261658 30.2123 0.195052C30.1364 0.128446 30.0479 0.0770748 29.9516 0.043873C29.8554 0.0106711 29.7535 -0.00371167 29.6516 0.00154577C29.5497 0.00680321 29.4498 0.0315979 29.3578 0.0745143C29.2657 0.117431 29.1832 0.177628 29.1149 0.25167L23.678 6.15092L22.795 5.36456C22.51 5.11764 22.1369 4.9901 21.7564 5.00952C21.3758 5.02895 21.0184 5.19377 20.7614 5.46836L19.9557 6.35065L19.0823 5.5816C18.9443 5.45832 18.7828 5.36289 18.6069 5.30081C18.431 5.23873 18.2443 5.21122 18.0574 5.21987C17.6722 5.24082 17.3105 5.40721 17.0487 5.68382L5.5352 18.1397L4.40721 17.152C4.33145 17.0853 4.24297 17.0338 4.14683 17.0005C4.05068 16.9672 3.94875 16.9526 3.84685 16.9578C3.74495 16.9629 3.64508 16.9875 3.55294 17.0303C3.4608 17.0731 3.37819 17.1332 3.30984 17.2071C3.24149 17.281 3.18873 17.3674 3.15457 17.4612C3.12042 17.5551 3.10553 17.6545 3.11077 17.754C3.11601 17.8535 3.14126 17.9509 3.1851 18.0409C3.22893 18.1308 3.29048 18.2114 3.36624 18.2781L6.55844 21.0917L2.79742 25.1634L1.28914 23.8439C1.13571 23.7096 0.933903 23.6403 0.728107 23.6512C0.52231 23.6621 0.329385 23.7524 0.191771 23.9021C0.0541573 24.0519 -0.0168717 24.2488 -0.00569041 24.4497C0.00549089 24.6505 0.0979665 24.8388 0.251393 24.9731L2.25598 26.7204C2.28006 26.7487 2.30589 26.7755 2.33333 26.8006C2.36269 26.8259 2.39393 26.8491 2.42679 26.8698L5.90582 29.9209C5.92852 29.9493 5.95387 29.9757 5.98156 29.9995C6.00998 30.0253 6.04072 30.0484 6.07341 30.0687L8.05382 31.7987C8.20704 31.9332 8.40873 32.0029 8.61452 31.9922C8.82032 31.9816 9.01336 31.8916 9.15119 31.7421C9.28902 31.5926 9.36034 31.3957 9.34946 31.1949C9.33858 30.994 9.24639 30.8056 9.09318 30.6711L7.60746 29.3689L11.3492 25.3207L14.5301 28.1233C14.6058 28.19 14.6943 28.2415 14.7904 28.2748C14.8866 28.3082 14.9885 28.3227 15.0904 28.3176C15.1923 28.3125 15.2922 28.2878 15.3843 28.245C15.4765 28.2023 15.5591 28.1422 15.6274 28.0683C15.6958 27.9943 15.7485 27.908 15.7827 27.8141C15.8169 27.7203 15.8317 27.6208 15.8265 27.5213C15.8213 27.4219 15.796 27.3244 15.7522 27.2345C15.7083 27.1446 15.6468 27.0639 15.571 26.9972L14.4624 26.0206L19.5206 20.5255C19.5666 20.4935 19.6088 20.4566 19.6463 20.4154C19.6833 20.3755 19.7157 20.3317 19.743 20.2849L22.4566 17.3376C22.4782 17.3184 22.4986 17.2979 22.5178 17.2763L22.542 17.2448L25.9566 13.5348C26.211 13.2639 26.3452 12.9057 26.3298 12.5385C26.3144 12.1712 26.1507 11.8249 25.8744 11.5752ZM21.8459 6.56926L23.135 7.71105C23.1592 7.7407 23.1855 7.76856 23.2139 7.7944C23.2421 7.81815 23.2717 7.84021 23.3026 7.86046L24.5724 8.98337L23.8392 9.77759L21.0998 7.36977L21.8459 6.56926ZM6.44564 28.3608L3.95279 26.1747L7.70898 22.114L10.197 24.3047L6.44564 28.3608ZM11.9244 23.7826C11.8951 23.7445 11.8622 23.7093 11.8261 23.6772C11.7899 23.6458 11.7511 23.6174 11.7101 23.5923L8.21819 20.5129L8.18274 20.4768C8.17056 20.4659 8.15764 20.456 8.14406 20.4469L6.68574 19.1604L18.1267 6.78472L24.7335 12.6038L21.8555 15.7272L17.2082 11.8284C17.1313 11.7607 17.0413 11.7087 16.9435 11.6754C16.8457 11.6421 16.742 11.6283 16.6386 11.6347C16.5353 11.6411 16.4342 11.6676 16.3415 11.7127C16.2488 11.7578 16.1663 11.8205 16.0988 11.8972C16.0313 11.9739 15.9801 12.063 15.9485 12.1593C15.9168 12.2555 15.9051 12.357 15.9142 12.4577C15.9233 12.5584 15.9529 12.6563 16.0014 12.7457C16.0498 12.8351 16.1161 12.9141 16.1963 12.9781L20.8162 16.8501L18.9953 18.827L16.728 16.8422C16.6521 16.7757 16.5634 16.7245 16.4671 16.6914C16.3709 16.6583 16.2689 16.6441 16.167 16.6495C16.0651 16.6549 15.9653 16.6798 15.8733 16.7229C15.7812 16.7659 15.6988 16.8263 15.6307 16.9004C15.5625 16.9746 15.51 17.0611 15.4761 17.155C15.4422 17.249 15.4277 17.3485 15.4332 17.448C15.4387 17.5474 15.4643 17.6448 15.5084 17.7347C15.5525 17.8245 15.6143 17.9049 15.6903 17.9714L17.9575 19.9562L16.1286 21.9425L13.8726 19.9483C13.7196 19.8132 13.5179 19.7429 13.3118 19.7529C13.1057 19.763 12.9121 19.8525 12.7736 20.0018C12.6352 20.1511 12.5631 20.348 12.5734 20.5492C12.5837 20.7503 12.6754 20.9393 12.8284 21.0744L15.0844 23.0717L13.3086 25.0062L11.9244 23.7826Z" fill="#717171"/>
<path d="M32.6826 5.51398L31.3177 3.20681C31.25 3.09145 31.1523 2.99559 31.0344 2.92892C30.9166 2.86226 30.7828 2.82715 30.6466 2.82715C30.5104 2.82715 30.3766 2.86226 30.2587 2.92892C30.1409 2.99559 30.0431 3.09145 29.9754 3.20681L28.6122 5.51241C28.4051 5.86143 28.2959 6.25751 28.2955 6.66081C28.2952 7.06411 28.4036 7.4604 28.61 7.80979C28.8164 8.15918 29.1134 8.44935 29.4712 8.65111C29.829 8.85287 30.235 8.95909 30.6482 8.95909C31.0614 8.95909 31.4673 8.85287 31.8251 8.65111C32.1829 8.44935 32.48 8.15918 32.6864 7.80979C32.8928 7.4604 33.0012 7.06411 33.0008 6.66081C33.0005 6.25751 32.8912 5.86143 32.6842 5.51241L32.6826 5.51398ZM31.3371 7.46729C31.1437 7.62946 30.8974 7.71914 30.6425 7.72025C30.3875 7.72136 30.1405 7.63384 29.9456 7.47336C29.7507 7.31288 29.6207 7.08993 29.579 6.84444C29.5372 6.59896 29.5863 6.34697 29.7176 6.13363L30.6458 4.56092L31.5739 6.13363C31.7025 6.34735 31.7492 6.59863 31.7059 6.84282C31.6625 7.087 31.5318 7.30827 31.3371 7.46729Z" fill="#717171"/>
</g>
<defs>
<clipPath id="clip0_279_311">
<rect width="33" height="32" fill="white"/>
</clipPath>
</defs>
</svg>
